<svg width="78" height="27" viewBox="0 0 78 27" fill="none" xmlns="http://www.w3.org/2000/svg">
<path d="M25.5 24V25.5H28.5V24H25.5ZM19.5 24V25.5H22.5V24H19.5ZM75 24V25.5H76.5V24H75ZM1.5 24V25.5H4.5V24H1.5ZM7.5 24V25.5H10.5V24H7.5ZM43.5 15C43.5 15.8284 44.1716 16.5 45 16.5C45.8284 16.5 46.5 15.8284 46.5 15H43.5ZM67.5 18V19.5H70.5V18H67.5ZM4.5 15C4.5 9.20101 9.20101 4.5 15 4.5V1.5C7.54416 1.5 1.5 7.54416 1.5 15H4.5ZM10.5 15C10.5 12.5147 12.5147 10.5 15 10.5V7.5C10.8579 7.5 7.5 10.8579 7.5 15H10.5ZM15 4.5C20.799 4.5 25.5 9.20101 25.5 15H28.5C28.5 7.54416 22.4558 1.5 15 1.5V4.5ZM15 10.5C17.4853 10.5 19.5 12.5147 19.5 15H22.5C22.5 10.8579 19.1421 7.5 15 7.5V10.5ZM25.5 15V24H28.5V15H25.5ZM19.5 15V24H22.5V15H19.5ZM66 25.5H75V22.5H66V25.5ZM1.5 15V24H4.5V15H1.5ZM7.5 15V24H10.5V15H7.5ZM28.5 15C28.5 9.20101 33.201 4.5 39 4.5V1.5C31.5442 1.5 25.5 7.54416 25.5 15H28.5ZM34.5 15C34.5 12.5147 36.5147 10.5 39 10.5V7.5C34.8579 7.5 31.5 10.8579 31.5 15H34.5ZM39 4.5C44.799 4.5 49.5 9.20101 49.5 15H52.5C52.5 7.54416 46.4558 1.5 39 1.5V4.5ZM39 10.5C41.4853 10.5 43.5 12.5147 43.5 15H46.5C46.5 10.8579 43.1421 7.5 39 7.5V10.5ZM49.5 15C49.5 19.1421 46.1421 22.5 42 22.5V25.5C47.799 25.5 52.5 20.799 52.5 15H49.5ZM42 22.5C37.8579 22.5 34.5 19.1421 34.5 15H31.5C31.5 20.799 36.201 25.5 42 25.5V22.5ZM52.5 15C52.5 9.20101 57.201 4.5 63 4.5V1.5C55.5442 1.5 49.5 7.54416 49.5 15H52.5ZM58.5 15C58.5 12.5147 60.5147 10.5 63 10.5V7.5C58.8579 7.5 55.5 10.8579 55.5 15H58.5ZM55.5 15C55.5 20.799 60.201 25.5 66 25.5V22.5C61.8579 22.5 58.5 19.1421 58.5 15H55.5ZM63 4.5C68.799 4.5 73.5 9.20101 73.5 15H76.5C76.5 7.54416 70.4558 1.5 63 1.5V4.5ZM63 10.5C65.4853 10.5 67.5 12.5147 67.5 15H70.5C70.5 10.8579 67.1421 7.5 63 7.5V10.5ZM73.5 15V24H76.5V15H73.5ZM67.5 15V18H70.5V15H67.5Z" fill="white"/>
</svg>
