<svg width="204" height="84" viewBox="0 0 204 84" fill="none" xmlns="http://www.w3.org/2000/svg">
<path d="M12 9V12" stroke="white" stroke-width="2" stroke-linecap="round"/>
<path d="M106 30V33" stroke="white" stroke-width="2" stroke-linecap="round"/>
<path d="M59 51V54" stroke="white" stroke-width="2" stroke-linecap="round"/>
<path d="M151.5 30V33" stroke="white" stroke-width="2" stroke-linecap="round"/>
<path d="M113 30V33" stroke="white" stroke-width="2" stroke-linecap="round"/>
<path d="M66 51V54" stroke="white" stroke-width="2" stroke-linecap="round"/>
<path d="M158.5 30V33" stroke="white" stroke-width="2" stroke-linecap="round"/>
<path d="M186.5 51V54" stroke="white" stroke-width="2" stroke-linecap="round"/>
<path d="M179.5 51V54" stroke="white" stroke-width="2" stroke-linecap="round"/>
<path d="M14 7H17" stroke="white" stroke-width="2" stroke-linecap="round"/>
<path d="M108 28H111" stroke="white" stroke-width="2" stroke-linecap="round"/>
<path d="M61 49H64" stroke="white" stroke-width="2" stroke-linecap="round"/>
<path d="M153.5 28H156.5" stroke="white" stroke-width="2" stroke-linecap="round"/>
<path d="M181.5 49H184.5" stroke="white" stroke-width="2" stroke-linecap="round"/>
<path d="M14 14H17" stroke="white" stroke-width="2" stroke-linecap="round"/>
<path d="M108 35H111" stroke="white" stroke-width="2" stroke-linecap="round"/>
<path d="M61 56H64" stroke="white" stroke-width="2" stroke-linecap="round"/>
<path d="M153.5 35H156.5" stroke="white" stroke-width="2" stroke-linecap="round"/>
<path d="M181.5 56H184.5" stroke="white" stroke-width="2" stroke-linecap="round"/>
<path d="M21 9L19 12" stroke="white" stroke-width="2" stroke-linecap="round"/>
<path d="M28 9V12" stroke="white" stroke-width="2" stroke-linecap="round"/>
<path d="M31 16V19" stroke="white" stroke-width="2" stroke-linecap="round"/>
<path d="M42.5 37V40" stroke="white" stroke-width="2" stroke-linecap="round"/>
<path d="M88 26V23" stroke="white" stroke-width="2" stroke-linecap="round"/>
<path d="M177.5 47V44" stroke="white" stroke-width="2" stroke-linecap="round"/>
<path d="M36 58V61" stroke="white" stroke-width="2" stroke-linecap="round"/>
<path d="M31 79V82" stroke="white" stroke-width="2" stroke-linecap="round"/>
<path d="M13 23V26" stroke="white" stroke-width="2" stroke-linecap="round"/>
<path d="M108.5 44V47" stroke="white" stroke-width="2" stroke-linecap="round"/>
<path d="M41 65V68" stroke="white" stroke-width="2" stroke-linecap="round"/>
<path d="M38 9V12" stroke="white" stroke-width="2" stroke-linecap="round"/>
<path d="M94 33V30" stroke="white" stroke-width="2" stroke-linecap="round"/>
<path d="M170.5 54V51" stroke="white" stroke-width="2" stroke-linecap="round"/>
<path d="M35.5 30V33" stroke="white" stroke-width="2" stroke-linecap="round"/>
<path d="M43 51V54" stroke="white" stroke-width="2" stroke-linecap="round"/>
<path d="M38 72V75" stroke="white" stroke-width="2" stroke-linecap="round"/>
<path d="M142.5 51V54" stroke="white" stroke-width="2" stroke-linecap="round"/>
<path d="M28.5 72V75" stroke="white" stroke-width="2" stroke-linecap="round"/>
<path d="M183.5 72V75" stroke="white" stroke-width="2" stroke-linecap="round"/>
<path d="M152.5 72V75" stroke="white" stroke-width="2" stroke-linecap="round"/>
<path d="M197 72V75" stroke="white" stroke-width="2" stroke-linecap="round"/>
<path d="M74 72V75" stroke="white" stroke-width="2" stroke-linecap="round"/>
<path d="M45 9V14" stroke="white" stroke-width="2" stroke-linecap="round"/>
<path d="M122 9V14" stroke="white" stroke-width="2" stroke-linecap="round"/>
<path d="M99 30V35" stroke="white" stroke-width="2" stroke-linecap="round"/>
<path d="M88.5 51V56" stroke="white" stroke-width="2" stroke-linecap="round"/>
<path d="M16 72V77" stroke="white" stroke-width="2" stroke-linecap="round"/>
<path d="M162 72V77" stroke="white" stroke-width="2" stroke-linecap="round"/>
<path d="M119 72V77" stroke="white" stroke-width="2" stroke-linecap="round"/>
<path d="M129.5 7V14" stroke="white" stroke-width="2" stroke-linecap="round"/>
<path d="M54 9V14" stroke="white" stroke-width="2" stroke-linecap="round"/>
<path d="M135.5 30V35" stroke="white" stroke-width="2" stroke-linecap="round"/>
<path d="M140 72V77" stroke="white" stroke-width="2" stroke-linecap="round"/>
<path d="M23 7H26" stroke="white" stroke-width="2" stroke-linecap="round"/>
<path d="M33 7H36" stroke="white" stroke-width="2" stroke-linecap="round"/>
<path d="M89 35H92" stroke="white" stroke-width="2" stroke-linecap="round"/>
<path d="M175.5 56H172.5" stroke="white" stroke-width="2" stroke-linecap="round"/>
<path d="M40.5 28H37.5" stroke="white" stroke-width="2" stroke-linecap="round"/>
<path d="M49 7H52" stroke="white" stroke-width="2" stroke-linecap="round"/>
<path d="M38 49H41" stroke="white" stroke-width="2" stroke-linecap="round"/>
<path d="M33 70H36" stroke="white" stroke-width="2" stroke-linecap="round"/>
<path d="M137.5 49H140.5" stroke="white" stroke-width="2" stroke-linecap="round"/>
<path d="M131.5 28H133.5" stroke="white" stroke-width="2" stroke-linecap="round"/>
<path d="M23.5 70H26.5" stroke="white" stroke-width="2" stroke-linecap="round"/>
<path d="M178.5 70H181.5" stroke="white" stroke-width="2" stroke-linecap="round"/>
<path d="M202 70H199" stroke="white" stroke-width="2" stroke-linecap="round"/>
<path d="M69 70H72" stroke="white" stroke-width="2" stroke-linecap="round"/>
<path d="M135.5 70H138" stroke="white" stroke-width="2" stroke-linecap="round"/>
<path d="M42 7H43" stroke="white" stroke-width="2" stroke-linecap="round"/>
<path d="M58.5 28V35" stroke="white" stroke-width="2" stroke-linecap="round"/>
<path d="M131 70L131 77.0004" stroke="white" stroke-width="2" stroke-linecap="round"/>
<path d="M55 72V77" stroke="white" stroke-width="2" stroke-linecap="round"/>
<path d="M52 70H53" stroke="white" stroke-width="2" stroke-linecap="round"/>
<path d="M101 28H102" stroke="white" stroke-width="2" stroke-linecap="round"/>
<path d="M18 70H19.5" stroke="white" stroke-width="2" stroke-linecap="round"/>
<path d="M90.5 49H92.5" stroke="white" stroke-width="2" stroke-linecap="round"/>
<path d="M164 70H165.5" stroke="white" stroke-width="2" stroke-linecap="round"/>
<path d="M121 70H122.5" stroke="white" stroke-width="2" stroke-linecap="round"/>
<path d="M124 7H125" stroke="white" stroke-width="2" stroke-linecap="round"/>
<path d="M145.5 12V11" stroke="white" stroke-width="2" stroke-linecap="round"/>
<path d="M51 54V53" stroke="white" stroke-width="2" stroke-linecap="round"/>
<path d="M107 75V74" stroke="white" stroke-width="2" stroke-linecap="round"/>
<path d="M162.5 35L163.5 34" stroke="white" stroke-width="2" stroke-linecap="round"/>
<path d="M198.5 56H199.5" stroke="white" stroke-width="2" stroke-linecap="round"/>
<path d="M167.5 29L168.5 28" stroke="white" stroke-width="2" stroke-linecap="round"/>
<path d="M152.5 56H150" stroke="white" stroke-width="2" stroke-linecap="round"/>
<path d="M148.5 49L146 49" stroke="white" stroke-width="2" stroke-linecap="round"/>
<path d="M140.5 10V9" stroke="white" stroke-width="2" stroke-linecap="round"/>
<path d="M78 35L75 31" stroke="white" stroke-width="2" stroke-linecap="round"/>
<path d="M71 26V24" stroke="white" stroke-width="2" stroke-linecap="round"/>
<path d="M71 9V14" stroke="white" stroke-width="2" stroke-linecap="round"/>
<path d="M75.5 7H73" stroke="white" stroke-width="2" stroke-linecap="round"/>
<path d="M119 35H116.5" stroke="white" stroke-width="2" stroke-linecap="round"/>
<path d="M77.5 9V14" stroke="white" stroke-width="2" stroke-linecap="round"/>
<path d="M121 33V28" stroke="white" stroke-width="2" stroke-linecap="round"/>
<path d="M84 9V14" stroke="white" stroke-width="2" stroke-linecap="round"/>
<path d="M127.5 33V28" stroke="white" stroke-width="2" stroke-linecap="round"/>
<path d="M82 7H79.5" stroke="white" stroke-width="2" stroke-linecap="round"/>
<path d="M125.5 35H123" stroke="white" stroke-width="2" stroke-linecap="round"/>
<path d="M95 9V14" stroke="white" stroke-width="2" stroke-linecap="round"/>
<path d="M20 30V35" stroke="white" stroke-width="2" stroke-linecap="round"/>
<path d="M115.5 51V56" stroke="white" stroke-width="2" stroke-linecap="round"/>
<path d="M48 72V77" stroke="white" stroke-width="2" stroke-linecap="round"/>
<path d="M143.5 14H141.5" stroke="white" stroke-width="2" stroke-linecap="round"/>
<path d="M99.5 7H97" stroke="white" stroke-width="2" stroke-linecap="round"/>
<path d="M24.5 49H22.5" stroke="white" stroke-width="2" stroke-linecap="round"/>
<path d="M49 56H47" stroke="white" stroke-width="2" stroke-linecap="round"/>
<path d="M105 77H103" stroke="white" stroke-width="2" stroke-linecap="round"/>
<path d="M4 33V32" stroke="white" stroke-width="2" stroke-linecap="round"/>
<path d="M11 33V32" stroke="white" stroke-width="2" stroke-linecap="round"/>
<path d="M6 35H9" stroke="white" stroke-width="2" stroke-linecap="round"/>
<path d="M99.5 54V53" stroke="white" stroke-width="2" stroke-linecap="round"/>
<path d="M79.5 54V53" stroke="white" stroke-width="2" stroke-linecap="round"/>
<path d="M106.5 54V53" stroke="white" stroke-width="2" stroke-linecap="round"/>
<path d="M4 26V25" stroke="white" stroke-width="2" stroke-linecap="round"/>
<path d="M145.5 77H148.5" stroke="white" stroke-width="2" stroke-linecap="round"/>
<path d="M6 28H9" stroke="white" stroke-width="2" stroke-linecap="round"/>
<path d="M101.5 56H104.5" stroke="white" stroke-width="2" stroke-linecap="round"/>
<path d="M143.5 68V67" stroke="white" stroke-width="2" stroke-linecap="round"/>
<path d="M99.5 47V46" stroke="white" stroke-width="2" stroke-linecap="round"/>
<path d="M75 51L76 49" stroke="white" stroke-width="2" stroke-linecap="round"/>
<path d="M145.5 70H148.5" stroke="white" stroke-width="2" stroke-linecap="round"/>
<path d="M101.5 49H104.5" stroke="white" stroke-width="2" stroke-linecap="round"/>
<path d="M142.5 30V31" stroke="white" stroke-width="2" stroke-linecap="round"/>
<path d="M169.5 72V73" stroke="white" stroke-width="2" stroke-linecap="round"/>
<path d="M144.5 28H147.5" stroke="white" stroke-width="2" stroke-linecap="round"/>
<path d="M142.5 37V38" stroke="white" stroke-width="2" stroke-linecap="round"/>
<path d="M87 32V33" stroke="white" stroke-width="2" stroke-linecap="round"/>
<path d="M171.5 70H174.5" stroke="white" stroke-width="2" stroke-linecap="round"/>
<path d="M144.5 35H147.5" stroke="white" stroke-width="2" stroke-linecap="round"/>
<path d="M169.5 79V80" stroke="white" stroke-width="2" stroke-linecap="round"/>
<path d="M145.5 7H142.5" stroke="white" stroke-width="2" stroke-linecap="round"/>
<path d="M171.5 77H174.5" stroke="white" stroke-width="2" stroke-linecap="round"/>
<path d="M15 28H18" stroke="white" stroke-width="2" stroke-linecap="round"/>
<path d="M110.5 49H113.5" stroke="white" stroke-width="2" stroke-linecap="round"/>
<path d="M43 70H46" stroke="white" stroke-width="2" stroke-linecap="round"/>
<path d="M101.5 9V14" stroke="white" stroke-width="2" stroke-linecap="round"/>
<path d="M51 49H47" stroke="white" stroke-width="2" stroke-linecap="round"/>
<path d="M107 70H103" stroke="white" stroke-width="2" stroke-linecap="round"/>
<path d="M26.5 51V56" stroke="white" stroke-width="2" stroke-linecap="round"/>
<path d="M45.5 33V28" stroke="white" stroke-width="2" stroke-linecap="round"/>
<path d="M11.5 54V49" stroke="white" stroke-width="2" stroke-linecap="round"/>
<path d="M92 75V70" stroke="white" stroke-width="2" stroke-linecap="round"/>
<path d="M50 35H47.5" stroke="white" stroke-width="2" stroke-linecap="round"/>
<path d="M16 56H13.5" stroke="white" stroke-width="2" stroke-linecap="round"/>
<path d="M96.5 77H94" stroke="white" stroke-width="2" stroke-linecap="round"/>
<path d="M108 9V14" stroke="white" stroke-width="2" stroke-linecap="round"/>
<path d="M106 7H103.5" stroke="white" stroke-width="2" stroke-linecap="round"/>
<path d="M52 33V28" stroke="white" stroke-width="2" stroke-linecap="round"/>
<path d="M18 54V49" stroke="white" stroke-width="2" stroke-linecap="round"/>
<path d="M98.5 75V70" stroke="white" stroke-width="2" stroke-linecap="round"/>
<path d="M33 51V56" stroke="white" stroke-width="2" stroke-linecap="round"/>
<path d="M31 49H28.5" stroke="white" stroke-width="2" stroke-linecap="round"/>
<path d="M23 14H26" stroke="white" stroke-width="2" stroke-linecap="round"/>
<path d="M117 9V12" stroke="white" stroke-width="2" stroke-linecap="round"/>
<path d="M112 7H115" stroke="white" stroke-width="2" stroke-linecap="round"/>
<path d="M112 14H115" stroke="white" stroke-width="2" stroke-linecap="round"/>
<path d="M88 7H91" stroke="white" stroke-width="2" stroke-linecap="round"/>
<path d="M24.5 28H27.5" stroke="white" stroke-width="2" stroke-linecap="round"/>
<path d="M111.5 70H114.5" stroke="white" stroke-width="2" stroke-linecap="round"/>
<path d="M154.5 70H157.5" stroke="white" stroke-width="2" stroke-linecap="round"/>
<path d="M119.5 49H122.5" stroke="white" stroke-width="2" stroke-linecap="round"/>
<path d="M81.5 49H84.5" stroke="white" stroke-width="2" stroke-linecap="round"/>
<path d="M24.5 35H27.5" stroke="white" stroke-width="2" stroke-linecap="round"/>
<path d="M88 14H91" stroke="white" stroke-width="2" stroke-linecap="round"/>
<path d="M111.5 77H114.5" stroke="white" stroke-width="2" stroke-linecap="round"/>
<path d="M154.5 77H157.5" stroke="white" stroke-width="2" stroke-linecap="round"/>
<path d="M119.5 56H122.5" stroke="white" stroke-width="2" stroke-linecap="round"/>
<path d="M81.5 56H84.5" stroke="white" stroke-width="2" stroke-linecap="round"/>
<path d="M134 7H137" stroke="white" stroke-width="2" stroke-linecap="round"/>
<path d="M134 14H137" stroke="white" stroke-width="2" stroke-linecap="round"/>
<path d="M63 9V12" stroke="white" stroke-width="2" stroke-linecap="round"/>
<path d="M195.5 51V54" stroke="white" stroke-width="2" stroke-linecap="round"/>
<path d="M58 7H61" stroke="white" stroke-width="2" stroke-linecap="round"/>
<path d="M190.5 49H193.5" stroke="white" stroke-width="2" stroke-linecap="round"/>
<path d="M11 72V75" stroke="white" stroke-width="2" stroke-linecap="round"/>
<path d="M188.5 61L193.5 56" stroke="white" stroke-width="2" stroke-linecap="round"/>
<path d="M56 19L61 14" stroke="white" stroke-width="2" stroke-linecap="round"/>
<path d="M6 70H9" stroke="white" stroke-width="2" stroke-linecap="round"/>
<path d="M161.5 49V54" stroke="white" stroke-width="2" stroke-linecap="round"/>
<path d="M4 82L9 77" stroke="white" stroke-width="2" stroke-linecap="round"/>
<path d="M156.5 49L158 51" stroke="white" stroke-width="2" stroke-linecap="round"/>
<path d="M4 49H7" stroke="white" stroke-width="2" stroke-linecap="round"/>
<path d="M154.5 61L159.5 56" stroke="white" stroke-width="2" stroke-linecap="round"/>
<path d="M162.5 28L164.5 30.5" stroke="white" stroke-width="2" stroke-linecap="round"/>
<path d="M166.5 32.5L168.5 35.0001" stroke="white" stroke-width="2" stroke-linecap="round"/>
<path d="M73 56L70 49" stroke="white" stroke-width="2" stroke-linecap="round"/>
<path d="M2 61L7 56" stroke="white" stroke-width="2" stroke-linecap="round"/>
<path d="M152 49L150.5 51" stroke="white" stroke-width="2" stroke-linecap="round"/>
<path d="M148 54L146.5 56" stroke="white" stroke-width="2" stroke-linecap="round"/>
<path d="M89 28H92" stroke="white" stroke-width="2" stroke-linecap="round"/>
<path d="M175.5 49H172.5" stroke="white" stroke-width="2" stroke-linecap="round"/>
<path d="M73 28L78 28" stroke="white" stroke-width="2" stroke-linecap="round"/>
<path d="M33 14H36" stroke="white" stroke-width="2" stroke-linecap="round"/>
<path d="M40.5 35H37.5" stroke="white" stroke-width="2" stroke-linecap="round"/>
<path d="M38 56H41" stroke="white" stroke-width="2" stroke-linecap="round"/>
<path d="M33 77H36" stroke="white" stroke-width="2" stroke-linecap="round"/>
<path d="M137.5 56H140.5" stroke="white" stroke-width="2" stroke-linecap="round"/>
<path d="M23.5 77H26.5" stroke="white" stroke-width="2" stroke-linecap="round"/>
<path d="M178.5 77H181.5" stroke="white" stroke-width="2" stroke-linecap="round"/>
<path d="M202 77H199" stroke="white" stroke-width="2" stroke-linecap="round"/>
<path d="M69 77H72" stroke="white" stroke-width="2" stroke-linecap="round"/>
<path d="M64 30V33" stroke="white" stroke-width="2" stroke-linecap="round"/>
<path d="M68.5 28H66" stroke="white" stroke-width="2" stroke-linecap="round"/>
<path d="M68.5 35H66" stroke="white" stroke-width="2" stroke-linecap="round"/>
<path d="M60 72V75" stroke="white" stroke-width="2" stroke-linecap="round"/>
<path d="M188 72V75" stroke="white" stroke-width="2" stroke-linecap="round"/>
<path d="M4 72V75" stroke="white" stroke-width="2" stroke-linecap="round"/>
<path d="M65 70H62" stroke="white" stroke-width="2" stroke-linecap="round"/>
<path d="M65 77H62" stroke="white" stroke-width="2" stroke-linecap="round"/>
<path d="M193 70H190" stroke="white" stroke-width="2" stroke-linecap="round"/>
<path d="M193 77H190" stroke="white" stroke-width="2" stroke-linecap="round"/>
<path d="M4 7.5V12" stroke="white" stroke-width="2" stroke-linecap="round"/>
<path d="M4 2V5" stroke="white" stroke-width="2" stroke-linecap="round"/>
<path d="M4 2V5" stroke="white" stroke-width="2" stroke-linecap="round"/>
<path d="M6 14H8" stroke="white" stroke-width="2" stroke-linecap="round"/>
<path d="M130.5 49.5V54" stroke="white" stroke-width="2" stroke-linecap="round"/>
<path d="M130.5 44V47" stroke="white" stroke-width="2" stroke-linecap="round"/>
<path d="M130.5 44V47" stroke="white" stroke-width="2" stroke-linecap="round"/>
<path d="M132.5 56H133.5" stroke="white" stroke-width="2" stroke-linecap="round"/>
<path d="M79 70.5V75" stroke="white" stroke-width="2" stroke-linecap="round"/>
<path d="M79 65V68" stroke="white" stroke-width="2" stroke-linecap="round"/>
<path d="M79 65V68" stroke="white" stroke-width="2" stroke-linecap="round"/>
<path d="M81 77H83" stroke="white" stroke-width="2" stroke-linecap="round"/>
</svg>
