<svg width="147" height="45" viewBox="0 0 147 45" fill="none" xmlns="http://www.w3.org/2000/svg">
    <path fill-rule="evenodd" clip-rule="evenodd" d="M15.7416 1.94107C18.8354 0.659577 22.1513 0 25.5 0C28.8487 0 32.1646 0.659577 35.2584 1.94107C38.3522 3.22257 41.1633 5.10088 43.5312 7.46878C45.8991 9.83667 47.7774 12.6478 49.0589 15.7416C49.2152 16.1189 49.3623 17.0164 49.5 17.4C49.6377 17.0164 49.7848 16.1189 49.9411 15.7416C51.2226 12.6478 53.1009 9.83667 55.4688 7.46878C57.8367 5.10088 60.6478 3.22257 63.7416 1.94107C66.8354 0.659577 70.1513 0 73.5 0C76.8487 0 80.1646 0.659577 83.2584 1.94107C86.3522 3.22257 89.1633 5.10088 91.5312 7.46878C93.8991 9.83667 95.7774 12.6478 97.0589 15.7416C97.2152 16.1189 97.3623 17.0164 97.5 17.4C97.6377 17.0164 97.7848 16.1189 97.9411 15.7416C99.2226 12.6478 101.101 9.83667 103.469 7.46878C105.837 5.10088 108.648 3.22257 111.742 1.94107C114.835 0.659577 118.151 0 121.5 0C124.849 0 128.165 0.659577 131.258 1.94107C134.352 3.22257 137.163 5.10088 139.531 7.46878C141.899 9.83667 143.777 12.6478 145.059 15.7416C146.34 18.8354 147 22.1513 147 25.5V45H127.5C124.939 45 122.404 44.4956 120.038 43.5156C117.672 42.5357 115.522 41.0993 113.711 39.2886C111.901 37.4778 110.464 35.3282 109.484 32.9623C108.504 30.5965 108 28.0608 108 25.5C108 23.7272 108.349 21.9717 109.028 20.3338C109.706 18.6959 110.7 17.2076 111.954 15.9541C113.208 14.7005 114.696 13.7061 116.334 13.0276C117.972 12.3492 119.727 12 121.5 12C123.273 12 125.028 12.3492 126.666 13.0276C128.304 13.7061 129.792 14.7005 131.046 15.9541C132.3 17.2076 133.294 18.6959 133.972 20.3338C134.651 21.9717 135 23.7272 135 25.5V33H132V25.5C132 24.1211 131.728 22.7557 131.201 21.4818C130.673 20.2079 129.9 19.0504 128.925 18.0754C127.95 17.1004 126.792 16.3269 125.518 15.7993C124.244 15.2716 122.879 15 121.5 15C120.121 15 118.756 15.2716 117.482 15.7993C116.208 16.3269 115.05 17.1004 114.075 18.0754C113.1 19.0504 112.327 20.2079 111.799 21.4818C111.272 22.7557 111 24.1211 111 25.5C111 27.6668 111.427 29.8124 112.256 31.8143C113.085 33.8161 114.301 35.6351 115.833 37.1673C117.365 38.6994 119.184 39.9148 121.186 40.744C123.188 41.5732 125.333 42 127.5 42H144V25.5C144 22.5453 143.418 19.6194 142.287 16.8896C141.157 14.1598 139.499 11.6794 137.41 9.5901C135.321 7.50078 132.84 5.84344 130.11 4.71271C127.381 3.58198 124.455 3 121.5 3C118.545 3 115.619 3.58198 112.89 4.71271C110.16 5.84344 107.679 7.50078 105.59 9.5901C103.501 11.6794 101.843 14.1598 100.713 16.8896C99.582 19.6194 99 22.5453 99 25.5C99 28.0608 98.4956 30.5965 97.5157 32.9623C96.5357 35.3282 95.0993 37.4778 93.2886 39.2886C91.4778 41.0993 89.3282 42.5357 86.9623 43.5157C84.5965 44.4956 82.0608 45 79.5 45C76.9392 45 74.4035 44.4956 72.0377 43.5156C69.6718 42.5357 67.5222 41.0993 65.7114 39.2886C63.9007 37.4778 62.4643 35.3282 61.4844 32.9623C60.5044 30.5965 60 28.0608 60 25.5C60 23.7272 60.3492 21.9717 61.0276 20.3338C61.7061 18.6959 62.7005 17.2076 63.9541 15.9541C65.2076 14.7005 66.6959 13.7061 68.3338 13.0276C69.9717 12.3492 71.7272 12 73.5 12C75.2728 12 77.0283 12.3492 78.6662 13.0276C80.3041 13.7061 81.7924 14.7005 83.0459 15.9541C84.2995 17.2076 85.2939 18.6959 85.9724 20.3338C86.6508 21.9717 87 23.7272 87 25.5C87 26.3284 86.3284 27 85.5 27C84.6716 27 84 26.3284 84 25.5C84 24.1211 83.7284 22.7557 83.2007 21.4818C82.6731 20.2079 81.8996 19.0504 80.9246 18.0754C79.9496 17.1004 78.7921 16.3269 77.5182 15.7993C76.2443 15.2716 74.8789 15 73.5 15C72.1211 15 70.7557 15.2716 69.4818 15.7993C68.2079 16.3269 67.0504 17.1004 66.0754 18.0754C65.1004 19.0504 64.3269 20.2079 63.7993 21.4818C63.2716 22.7557 63 24.1211 63 25.5C63 27.6668 63.4268 29.8124 64.256 31.8143C65.0852 33.8161 66.3006 35.6351 67.8327 37.1673C69.3649 38.6994 71.1838 39.9148 73.1857 40.744C75.1876 41.5732 77.3332 42 79.5 42C81.6668 42 83.8124 41.5732 85.8143 40.744C87.8161 39.9148 89.6351 38.6994 91.1673 37.1673C92.6994 35.6351 93.9148 33.8161 94.744 31.8143C95.5732 29.8124 96 27.6668 96 25.5C96 22.5453 95.418 19.6194 94.2873 16.8896C93.1566 14.1598 91.4992 11.6794 89.4099 9.5901C87.3206 7.50078 84.8402 5.84344 82.1104 4.71271C79.3805 3.58198 76.4547 3 73.5 3C70.5453 3 67.6194 3.58198 64.8896 4.71271C62.1598 5.84344 59.6794 7.50078 57.5901 9.5901C55.5008 11.6794 53.8434 14.1598 52.7127 16.8896C51.582 19.6194 51 22.5453 51 25.5V45H48V25.5C48 22.5453 47.418 19.6194 46.2873 16.8896C45.1566 14.1598 43.4992 11.6794 41.4099 9.5901C39.3206 7.50078 36.8402 5.84344 34.1104 4.71271C31.3806 3.58198 28.4547 3 25.5 3C22.5453 3 19.6194 3.58198 16.8896 4.71271C14.1598 5.84344 11.6794 7.50078 9.5901 9.5901C7.50078 11.6794 5.84344 14.1598 4.71271 16.8896C3.58198 19.6194 3 22.5453 3 25.5V45H0V25.5C0 22.1513 0.659576 18.8354 1.94107 15.7416C3.22257 12.6478 5.10088 9.83667 7.46878 7.46878C9.83667 5.10088 12.6478 3.22257 15.7416 1.94107ZM20.3338 13.0276C21.9717 12.3492 23.7272 12 25.5 12C27.2728 12 29.0283 12.3492 30.6662 13.0276C32.3041 13.7061 33.7924 14.7005 35.0459 15.9541C36.2995 17.2076 37.2939 18.6959 37.9724 20.3338C38.6508 21.9717 39 23.7272 39 25.5V45H36V25.5C36 24.1211 35.7284 22.7557 35.2007 21.4818C34.6731 20.2079 33.8996 19.0504 32.9246 18.0754C31.9496 17.1004 30.7921 16.3269 29.5182 15.7993C28.2443 15.2716 26.8789 15 25.5 15C24.1211 15 22.7557 15.2716 21.4818 15.7993C20.2079 16.3269 19.0504 17.1004 18.0754 18.0754C17.1004 19.0504 16.3269 20.2079 15.7993 21.4818C15.2716 22.7557 15 24.1211 15 25.5V45H12V25.5C12 23.7272 12.3492 21.9717 13.0276 20.3338C13.7061 18.6959 14.7005 17.2076 15.9541 15.9541C17.2076 14.7005 18.6959 13.7061 20.3338 13.0276Z" fill="rgba(180, 255, 235, 0.8)"/>
</svg>     