<svg width="804" height="157" viewBox="0 0 804 157" fill="none" xmlns="http://www.w3.org/2000/svg">
<path d="M12 70C12 45.1472 32.1472 25 57 25" stroke="white" stroke-width="4" stroke-miterlimit="10" stroke-linecap="round"/>
<path d="M22 70C22 50.67 37.67 35 57 35" stroke="white" stroke-width="4" stroke-miterlimit="10" stroke-linecap="round"/>
<path d="M22 70C22 50.67 37.67 35 57 35" stroke="white" stroke-width="4" stroke-miterlimit="10" stroke-linecap="round"/>
<path d="M57 25C69.915 25 82.2075 30.549 90.75 40.2353" stroke="white" stroke-width="4" stroke-miterlimit="10" stroke-linecap="round"/>
<path d="M57 35C68.4685 35 79.2094 40.6185 85.75 50.0391" stroke="white" stroke-width="4" stroke-miterlimit="10" stroke-linecap="round"/>
<path d="M57 35C68.4685 35 79.2094 40.6185 85.75 50.0391" stroke="white" stroke-width="4" stroke-miterlimit="10" stroke-linecap="round"/>
<path d="M80.75 99.7646C72.2075 109.451 59.915 115 47 115" stroke="white" stroke-width="4" stroke-miterlimit="10" stroke-linecap="round"/>
<path d="M75.75 89.9609C69.2094 99.3815 58.4685 105 47 105" stroke="white" stroke-width="4" stroke-miterlimit="10" stroke-linecap="round"/>
<path d="M75.75 89.9609C69.2094 99.3815 58.4685 105 47 105" stroke="white" stroke-width="4" stroke-miterlimit="10" stroke-linecap="round"/>
<path d="M47 115C22.1472 115 2 94.8528 2 70" stroke="white" stroke-width="4" stroke-miterlimit="10" stroke-linecap="round"/>
<path d="M47 105C27.67 105 12 89.33 12 70" stroke="white" stroke-width="4" stroke-miterlimit="10" stroke-linecap="round"/>
<path d="M47 105C27.67 105 12 89.33 12 70" stroke="white" stroke-width="4" stroke-miterlimit="10" stroke-linecap="round"/>
<path d="M92 70C92 45.1472 112.147 25 137 25" stroke="white" stroke-width="4" stroke-miterlimit="10" stroke-linecap="round"/>
<path d="M137 15.0195C106.624 15.0195 82 39.6439 82 70.0195" stroke="url(#paint0_angular_1701_7377)" stroke-width="4" stroke-miterlimit="10" stroke-linecap="round"/>
<path d="M57 15C26.6243 15 2 39.6243 2 70" stroke="url(#paint1_angular_1701_7377)" stroke-width="4" stroke-miterlimit="10" stroke-linecap="round"/>
<path d="M102 70C102 50.67 117.67 35 137 35" stroke="white" stroke-width="4" stroke-miterlimit="10" stroke-linecap="round"/>
<path d="M102 70C102 50.67 117.67 35 137 35" stroke="white" stroke-width="4" stroke-miterlimit="10" stroke-linecap="round"/>
<path d="M137 25C161.853 25 182 45.1472 182 70" stroke="white" stroke-width="4" stroke-miterlimit="10" stroke-linecap="round"/>
<path d="M137 35C156.33 35 172 50.67 172 70" stroke="white" stroke-width="4" stroke-miterlimit="10" stroke-linecap="round"/>
<path d="M137 35C156.33 35 172 50.67 172 70" stroke="white" stroke-width="4" stroke-miterlimit="10" stroke-linecap="round"/>
<path d="M172 70C172 94.8528 151.853 115 127 115" stroke="white" stroke-width="4" stroke-miterlimit="10" stroke-linecap="round"/>
<path d="M162 70C162 89.33 146.33 105 127 105" stroke="white" stroke-width="4" stroke-miterlimit="10" stroke-linecap="round"/>
<path d="M162 70C162 89.33 146.33 105 127 105" stroke="white" stroke-width="4" stroke-miterlimit="10" stroke-linecap="round"/>
<path d="M127 115C102.147 115 82 94.8528 82 70" stroke="white" stroke-width="4" stroke-miterlimit="10" stroke-linecap="round"/>
<path d="M127 105C107.67 105 92 89.33 92 70" stroke="white" stroke-width="4" stroke-miterlimit="10" stroke-linecap="round"/>
<path d="M127 105C107.67 105 92 89.33 92 70" stroke="white" stroke-width="4" stroke-miterlimit="10" stroke-linecap="round"/>
<path d="M102 70C102 83.8071 113.193 95 127 95" stroke="url(#paint2_angular_1701_7377)" stroke-width="4" stroke-miterlimit="10" stroke-linecap="round"/>
<path d="M22 70C22 83.8071 33.1929 95 47 95" stroke="url(#paint3_angular_1701_7377)" stroke-width="4" stroke-miterlimit="10" stroke-linecap="round"/>
<path d="M162 70C162 56.1929 150.807 45 137 45" stroke="url(#paint4_angular_1701_7377)" stroke-width="4" stroke-miterlimit="10" stroke-linecap="round"/>
<path d="M432 70C432 56.1929 420.807 45 407 45" stroke="url(#paint5_angular_1701_7377)" stroke-width="4" stroke-miterlimit="10" stroke-linecap="round"/>
<path d="M782 70C782 56.1929 770.807 45 757 45" stroke="url(#paint6_angular_1701_7377)" stroke-width="4" stroke-miterlimit="10" stroke-linecap="round"/>
<path d="M182 70C182 45.1472 202.147 25 227 25" stroke="white" stroke-width="4" stroke-miterlimit="10" stroke-linecap="round"/>
<path d="M192 70C192 50.67 207.67 35 227 35" stroke="white" stroke-width="4" stroke-miterlimit="10" stroke-linecap="round"/>
<path d="M192 70C192 50.67 207.67 35 227 35" stroke="white" stroke-width="4" stroke-miterlimit="10" stroke-linecap="round"/>
<path d="M227 25C251.853 25 272 45.1472 272 70" stroke="white" stroke-width="4" stroke-miterlimit="10" stroke-linecap="round"/>
<path d="M227 35C246.33 35 262 50.67 262 70" stroke="white" stroke-width="4" stroke-miterlimit="10" stroke-linecap="round"/>
<path d="M227 35C246.33 35 262 50.67 262 70" stroke="white" stroke-width="4" stroke-miterlimit="10" stroke-linecap="round"/>
<path d="M262 70V115" stroke="white" stroke-width="4" stroke-miterlimit="10" stroke-linecap="round"/>
<path d="M252 70V115" stroke="white" stroke-width="4" stroke-miterlimit="10" stroke-linecap="round"/>
<path d="M252 70V115" stroke="white" stroke-width="4" stroke-miterlimit="10" stroke-linecap="round"/>
<path d="M192 70L192 115" stroke="url(#paint7_linear_1701_7377)" stroke-width="4" stroke-miterlimit="10" stroke-linecap="round"/>
<path d="M172 70V115" stroke="white" stroke-width="4" stroke-miterlimit="10" stroke-linecap="round"/>
<path d="M182 70V115" stroke="white" stroke-width="4" stroke-miterlimit="10" stroke-linecap="round"/>
<path d="M182 70V115" stroke="white" stroke-width="4" stroke-miterlimit="10" stroke-linecap="round"/>
<path d="M272 70C272 45.1472 292.147 25 317 25" stroke="white" stroke-width="4" stroke-miterlimit="10" stroke-linecap="round"/>
<path d="M282 70C282 50.67 297.67 35 317 35" stroke="white" stroke-width="4" stroke-miterlimit="10" stroke-linecap="round"/>
<path d="M282 70C282 50.67 297.67 35 317 35" stroke="white" stroke-width="4" stroke-miterlimit="10" stroke-linecap="round"/>
<path d="M317 25C341.853 25 362 45.1472 362 70" stroke="white" stroke-width="4" stroke-miterlimit="10" stroke-linecap="round"/>
<path d="M317 35C336.33 35 352 50.67 352 70" stroke="white" stroke-width="4" stroke-miterlimit="10" stroke-linecap="round"/>
<path d="M317 35C336.33 35 352 50.67 352 70" stroke="white" stroke-width="4" stroke-miterlimit="10" stroke-linecap="round"/>
<path d="M352 70V115" stroke="white" stroke-width="4" stroke-miterlimit="10" stroke-linecap="round"/>
<path d="M342 70V115" stroke="white" stroke-width="4" stroke-miterlimit="10" stroke-linecap="round"/>
<path d="M342 70V115" stroke="white" stroke-width="4" stroke-miterlimit="10" stroke-linecap="round"/>
<path d="M262 70V115" stroke="white" stroke-width="4" stroke-miterlimit="10" stroke-linecap="round"/>
<path d="M272 70V115" stroke="white" stroke-width="4" stroke-miterlimit="10" stroke-linecap="round"/>
<path d="M272 70V115" stroke="white" stroke-width="4" stroke-miterlimit="10" stroke-linecap="round"/>
<path d="M362 70C362 45.1472 382.147 25 407 25" stroke="white" stroke-width="4" stroke-miterlimit="10" stroke-linecap="round"/>
<path d="M372 70C372 50.67 387.67 35 407 35" stroke="white" stroke-width="4" stroke-miterlimit="10" stroke-linecap="round"/>
<path d="M372 70C372 50.67 387.67 35 407 35" stroke="white" stroke-width="4" stroke-miterlimit="10" stroke-linecap="round"/>
<path d="M407 25C431.853 25 452 45.1472 452 70" stroke="white" stroke-width="4" stroke-miterlimit="10" stroke-linecap="round"/>
<path d="M407 35C426.33 35 442 50.67 442 70" stroke="white" stroke-width="4" stroke-miterlimit="10" stroke-linecap="round"/>
<path d="M407 35C426.33 35 442 50.67 442 70" stroke="white" stroke-width="4" stroke-miterlimit="10" stroke-linecap="round"/>
<path d="M442 70C442 78.8999 439.361 87.5999 434.417 95" stroke="white" stroke-width="4" stroke-miterlimit="10" stroke-linecap="round"/>
<path d="M432 70C432 79.4064 428.214 88.4169 421.495 95" stroke="white" stroke-width="4" stroke-miterlimit="10" stroke-linecap="round"/>
<path d="M432 70C432 79.4064 428.214 88.4169 421.495 95" stroke="white" stroke-width="4" stroke-miterlimit="10" stroke-linecap="round"/>
<path d="M397 115C372.147 115 352 94.8528 352 70" stroke="white" stroke-width="4" stroke-miterlimit="10" stroke-linecap="round"/>
<path d="M397 105C377.67 105 362 89.33 362 70" stroke="white" stroke-width="4" stroke-miterlimit="10" stroke-linecap="round"/>
<path d="M397 105C377.67 105 362 89.33 362 70" stroke="white" stroke-width="4" stroke-miterlimit="10" stroke-linecap="round"/>
<path d="M397 115H437" stroke="white" stroke-width="4" stroke-miterlimit="10" stroke-linecap="round"/>
<path d="M397 105H437" stroke="white" stroke-width="4" stroke-miterlimit="10" stroke-linecap="round"/>
<path d="M397 105H437" stroke="white" stroke-width="4" stroke-miterlimit="10" stroke-linecap="round"/>
<path d="M452 70C452 45.1472 472.147 25 497 25" stroke="white" stroke-width="4" stroke-miterlimit="10" stroke-linecap="round"/>
<path d="M462 70C462 50.67 477.67 35 497 35" stroke="white" stroke-width="4" stroke-miterlimit="10" stroke-linecap="round"/>
<path d="M462 70C462 50.67 477.67 35 497 35" stroke="white" stroke-width="4" stroke-miterlimit="10" stroke-linecap="round"/>
<path d="M497 25C505.9 25 514.6 27.6391 522 32.5834" stroke="white" stroke-width="4" stroke-miterlimit="10" stroke-linecap="round"/>
<path d="M497 35C506.406 35 515.417 38.7862 522 45.5051" stroke="white" stroke-width="4" stroke-miterlimit="10" stroke-linecap="round"/>
<path d="M497 35C506.406 35 515.417 38.7862 522 45.5051" stroke="white" stroke-width="4" stroke-miterlimit="10" stroke-linecap="round"/>
<path d="M520.75 99.7646C512.208 109.451 499.915 115 487 115" stroke="white" stroke-width="4" stroke-miterlimit="10" stroke-linecap="round"/>
<path d="M515.75 89.9609C509.209 99.3815 498.468 105 487 105" stroke="white" stroke-width="4" stroke-miterlimit="10" stroke-linecap="round"/>
<path d="M515.75 89.9609C509.209 99.3815 498.468 105 487 105" stroke="white" stroke-width="4" stroke-miterlimit="10" stroke-linecap="round"/>
<path d="M487 115C462.147 115 442 94.8528 442 70" stroke="white" stroke-width="4" stroke-miterlimit="10" stroke-linecap="round"/>
<path d="M487 105C467.67 105 452 89.33 452 70" stroke="white" stroke-width="4" stroke-miterlimit="10" stroke-linecap="round"/>
<path d="M487 105C467.67 105 452 89.33 452 70" stroke="white" stroke-width="4" stroke-miterlimit="10" stroke-linecap="round"/>
<path d="M532 70V2.5" stroke="white" stroke-width="4" stroke-miterlimit="10" stroke-linecap="round"/>
<path d="M542 70V2.5" stroke="white" stroke-width="4" stroke-miterlimit="10" stroke-linecap="round"/>
<path d="M542 70V2.5" stroke="white" stroke-width="4" stroke-miterlimit="10" stroke-linecap="round"/>
<path d="M567 115C542.147 115 522 94.8528 522 70" stroke="white" stroke-width="4" stroke-miterlimit="10" stroke-linecap="round"/>
<path d="M567 105C547.67 105 532 89.33 532 70" stroke="white" stroke-width="4" stroke-miterlimit="10" stroke-linecap="round"/>
<path d="M567 105C547.67 105 532 89.33 532 70" stroke="white" stroke-width="4" stroke-miterlimit="10" stroke-linecap="round"/>
<path d="M592 107.416C584.6 112.36 575.9 114.999 567 114.999" stroke="white" stroke-width="4" stroke-miterlimit="10" stroke-linecap="round"/>
<path d="M592 94.4951C585.417 101.214 576.406 105 567 105" stroke="white" stroke-width="4" stroke-miterlimit="10" stroke-linecap="round"/>
<path d="M592 94.4951C585.417 101.214 576.406 105 567 105" stroke="white" stroke-width="4" stroke-miterlimit="10" stroke-linecap="round"/>
<path d="M577 25H542" stroke="white" stroke-width="4" stroke-miterlimit="10" stroke-linecap="round"/>
<path d="M577 35H542" stroke="white" stroke-width="4" stroke-miterlimit="10" stroke-linecap="round"/>
<path d="M577 35H542" stroke="white" stroke-width="4" stroke-miterlimit="10" stroke-linecap="round"/>
<path d="M577 25H602" stroke="white" stroke-width="4" stroke-miterlimit="10" stroke-linecap="round"/>
<path d="M577 35H602" stroke="white" stroke-width="4" stroke-miterlimit="10" stroke-linecap="round"/>
<path d="M577 35H602" stroke="white" stroke-width="4" stroke-miterlimit="10" stroke-linecap="round"/>
<path d="M612 14.5V2" stroke="white" stroke-width="4" stroke-miterlimit="10" stroke-linecap="round"/>
<path d="M622 14.5V2" stroke="white" stroke-width="4" stroke-miterlimit="10" stroke-linecap="round"/>
<path d="M622 14.5V2" stroke="white" stroke-width="4" stroke-miterlimit="10" stroke-linecap="round"/>
<path d="M612 70V25" stroke="white" stroke-width="4" stroke-miterlimit="10" stroke-linecap="round"/>
<path d="M622 70V25" stroke="white" stroke-width="4" stroke-miterlimit="10" stroke-linecap="round"/>
<path d="M622 70V25" stroke="white" stroke-width="4" stroke-miterlimit="10" stroke-linecap="round"/>
<path d="M602 70V115" stroke="white" stroke-width="4" stroke-miterlimit="10" stroke-linecap="round"/>
<path d="M612 70V115" stroke="white" stroke-width="4" stroke-miterlimit="10" stroke-linecap="round"/>
<path d="M612 70V115" stroke="white" stroke-width="4" stroke-miterlimit="10" stroke-linecap="round"/>
<path d="M622 70C622 45.1472 642.147 25 667 25" stroke="white" stroke-width="4" stroke-miterlimit="10" stroke-linecap="round"/>
<path d="M632 70C632 50.67 647.67 35 667 35" stroke="white" stroke-width="4" stroke-miterlimit="10" stroke-linecap="round"/>
<path d="M632 70C632 50.67 647.67 35 667 35" stroke="white" stroke-width="4" stroke-miterlimit="10" stroke-linecap="round"/>
<path d="M667 25C691.853 25 712 45.1472 712 70" stroke="white" stroke-width="4" stroke-miterlimit="10" stroke-linecap="round"/>
<path d="M667 35C686.33 35 702 50.67 702 70" stroke="white" stroke-width="4" stroke-miterlimit="10" stroke-linecap="round"/>
<path d="M667 35C686.33 35 702 50.67 702 70" stroke="white" stroke-width="4" stroke-miterlimit="10" stroke-linecap="round"/>
<path d="M702 70V115" stroke="white" stroke-width="4" stroke-miterlimit="10" stroke-linecap="round"/>
<path d="M692 70V115" stroke="white" stroke-width="4" stroke-miterlimit="10" stroke-linecap="round"/>
<path d="M692 70V115" stroke="white" stroke-width="4" stroke-miterlimit="10" stroke-linecap="round"/>
<path d="M612 70V115" stroke="white" stroke-width="4" stroke-miterlimit="10" stroke-linecap="round"/>
<path d="M622 70V115" stroke="white" stroke-width="4" stroke-miterlimit="10" stroke-linecap="round"/>
<path d="M622 70V115" stroke="white" stroke-width="4" stroke-miterlimit="10" stroke-linecap="round"/>
<path d="M712 70C712 45.1472 732.147 25 757 25" stroke="white" stroke-width="4" stroke-miterlimit="10" stroke-linecap="round"/>
<path d="M722 70C722 50.67 737.67 35 757 35" stroke="white" stroke-width="4" stroke-miterlimit="10" stroke-linecap="round"/>
<path d="M722 70C722 50.67 737.67 35 757 35" stroke="white" stroke-width="4" stroke-miterlimit="10" stroke-linecap="round"/>
<path d="M757 25C781.853 25 802 45.1472 802 70" stroke="white" stroke-width="4" stroke-miterlimit="10" stroke-linecap="round"/>
<path d="M757 35C776.33 35 792 50.67 792 70" stroke="white" stroke-width="4" stroke-miterlimit="10" stroke-linecap="round"/>
<path d="M757 35C776.33 35 792 50.67 792 70" stroke="white" stroke-width="4" stroke-miterlimit="10" stroke-linecap="round"/>
<path d="M747 115C761.159 115 773.791 108.46 782.04 98.2363" stroke="white" stroke-width="4" stroke-miterlimit="10" stroke-linecap="round"/>
<path d="M782 70C782 89.33 766.33 105 747 105" stroke="white" stroke-width="4" stroke-miterlimit="10" stroke-linecap="round"/>
<path d="M782 70C782 89.33 766.33 105 747 105" stroke="white" stroke-width="4" stroke-miterlimit="10" stroke-linecap="round"/>
<path d="M747 115C722.147 115 702 94.8528 702 70" stroke="white" stroke-width="4" stroke-miterlimit="10" stroke-linecap="round"/>
<path d="M747 145C734.359 145 722.449 141.873 712 136.35M747 155C734.523 155 722.674 152.312 712 147.483" stroke="white" stroke-width="4" stroke-miterlimit="10" stroke-linecap="round"/>
<path d="M747 105C727.67 105 712 89.33 712 70" stroke="white" stroke-width="4" stroke-miterlimit="10" stroke-linecap="round"/>
<path d="M747 105C727.67 105 712 89.33 712 70" stroke="white" stroke-width="4" stroke-miterlimit="10" stroke-linecap="round"/>
<path d="M792 70V110" stroke="white" stroke-width="4" stroke-miterlimit="10" stroke-linecap="round"/>
<path d="M782 110V99.208" stroke="white" stroke-width="4" stroke-miterlimit="10" stroke-linecap="round"/>
<path d="M792 110C792 134.853 771.853 155 747 155" stroke="white" stroke-width="4" stroke-miterlimit="10" stroke-linecap="round"/>
<path d="M782 110C782 129.33 766.33 145 747 145" stroke="white" stroke-width="4" stroke-miterlimit="10" stroke-linecap="round"/>
<path d="M782 110C782 129.33 766.33 145 747 145" stroke="white" stroke-width="4" stroke-miterlimit="10" stroke-linecap="round"/>
<path d="M252 70C252 56.1929 240.807 45 227 45" stroke="url(#paint8_angular_1701_7377)" stroke-width="4" stroke-miterlimit="10" stroke-linecap="round"/>
<path d="M342 70C342 56.1929 330.807 45 317 45" stroke="url(#paint9_angular_1701_7377)" stroke-width="4" stroke-miterlimit="10" stroke-linecap="round"/>
<path d="M282 70L282 115" stroke="url(#paint10_linear_1701_7377)" stroke-width="4" stroke-miterlimit="10" stroke-linecap="round"/>
<path d="M372 70C372 83.8071 383.193 95 397 95" stroke="url(#paint11_angular_1701_7377)" stroke-width="4" stroke-miterlimit="10" stroke-linecap="round"/>
<path d="M462 70C462 83.8071 473.193 95 487 95" stroke="url(#paint12_angular_1701_7377)" stroke-width="4" stroke-miterlimit="10" stroke-linecap="round"/>
<path d="M542 70C542 83.8071 553.193 95 567 95" stroke="url(#paint13_angular_1701_7377)" stroke-width="4" stroke-miterlimit="10" stroke-linecap="round"/>
<path d="M602 70V45" stroke="url(#paint14_linear_1701_7377)" stroke-width="4" stroke-miterlimit="10" stroke-linecap="round"/>
<path d="M522 70V50" stroke="url(#paint15_linear_1701_7377)" stroke-width="4" stroke-miterlimit="10" stroke-linecap="round"/>
<path d="M692 69.999C692 56.1919 680.807 44.999 667 44.999" stroke="url(#paint16_angular_1701_7377)" stroke-width="4" stroke-miterlimit="10" stroke-linecap="round"/>
<path d="M632 69.999L632 114.999" stroke="url(#paint17_linear_1701_7377)" stroke-width="4" stroke-miterlimit="10" stroke-linecap="round"/>
<path d="M802 69.999L802 114.999" stroke="url(#paint18_linear_1701_7377)" stroke-width="4" stroke-miterlimit="10" stroke-linecap="round"/>
<path d="M722 70C722 83.8071 733.193 95 747 95" stroke="url(#paint19_angular_1701_7377)" stroke-width="4" stroke-miterlimit="10" stroke-linecap="round"/>
<defs>
<radialGradient id="paint0_angular_1701_7377" cx="0" cy="0" r="1" gradientUnits="userSpaceOnUse" gradientTransform="translate(137 70.0195) rotate(-180) scale(55)">
<stop offset="0.00209964" stop-color="white"/>
<stop offset="0.729666" stop-color="white" stop-opacity="0"/>
<stop offset="0.965088" stop-color="white" stop-opacity="0"/>
</radialGradient>
<radialGradient id="paint1_angular_1701_7377" cx="0" cy="0" r="1" gradientUnits="userSpaceOnUse" gradientTransform="translate(57 70) rotate(-180) scale(55)">
<stop offset="0.00209964" stop-color="white"/>
<stop offset="0.483433" stop-color="white" stop-opacity="0"/>
<stop offset="0.856116" stop-color="white" stop-opacity="0"/>
</radialGradient>
<radialGradient id="paint2_angular_1701_7377" cx="0" cy="0" r="1" gradientUnits="userSpaceOnUse" gradientTransform="translate(127 70) rotate(180) scale(25 25)">
<stop offset="0.00209964" stop-color="white"/>
<stop offset="0.25" stop-color="white" stop-opacity="0"/>
</radialGradient>
<radialGradient id="paint3_angular_1701_7377" cx="0" cy="0" r="1" gradientUnits="userSpaceOnUse" gradientTransform="translate(47 70) rotate(180) scale(25 25)">
<stop offset="0.00209964" stop-color="white"/>
<stop offset="0.25" stop-color="white" stop-opacity="0"/>
</radialGradient>
<radialGradient id="paint4_angular_1701_7377" cx="0" cy="0" r="1" gradientUnits="userSpaceOnUse" gradientTransform="translate(137 70) scale(25 25)">
<stop offset="0.00209964" stop-color="white"/>
<stop offset="0.25" stop-color="white" stop-opacity="0"/>
</radialGradient>
<radialGradient id="paint5_angular_1701_7377" cx="0" cy="0" r="1" gradientUnits="userSpaceOnUse" gradientTransform="translate(407 70) scale(25 25)">
<stop offset="0.00209964" stop-color="white"/>
<stop offset="0.25" stop-color="white" stop-opacity="0"/>
</radialGradient>
<radialGradient id="paint6_angular_1701_7377" cx="0" cy="0" r="1" gradientUnits="userSpaceOnUse" gradientTransform="translate(757 70) scale(25 25)">
<stop offset="0.00209964" stop-color="white"/>
<stop offset="0.25" stop-color="white" stop-opacity="0"/>
</radialGradient>
<linearGradient id="paint7_linear_1701_7377" x1="191.5" y1="70" x2="191.5" y2="115" gradientUnits="userSpaceOnUse">
<stop stop-color="white"/>
<stop offset="1" stop-color="white" stop-opacity="0"/>
</linearGradient>
<radialGradient id="paint8_angular_1701_7377" cx="0" cy="0" r="1" gradientUnits="userSpaceOnUse" gradientTransform="translate(227 70) scale(25 25)">
<stop offset="0.00209964" stop-color="white"/>
<stop offset="0.25" stop-color="white" stop-opacity="0"/>
</radialGradient>
<radialGradient id="paint9_angular_1701_7377" cx="0" cy="0" r="1" gradientUnits="userSpaceOnUse" gradientTransform="translate(317 70) scale(25 25)">
<stop offset="0.00209964" stop-color="white"/>
<stop offset="0.25" stop-color="white" stop-opacity="0"/>
</radialGradient>
<linearGradient id="paint10_linear_1701_7377" x1="281.5" y1="70" x2="281.5" y2="115" gradientUnits="userSpaceOnUse">
<stop stop-color="white"/>
<stop offset="1" stop-color="white" stop-opacity="0"/>
</linearGradient>
<radialGradient id="paint11_angular_1701_7377" cx="0" cy="0" r="1" gradientUnits="userSpaceOnUse" gradientTransform="translate(397 70) rotate(180) scale(25 25)">
<stop offset="0.00209964" stop-color="white"/>
<stop offset="0.25" stop-color="white" stop-opacity="0"/>
</radialGradient>
<radialGradient id="paint12_angular_1701_7377" cx="0" cy="0" r="1" gradientUnits="userSpaceOnUse" gradientTransform="translate(487 70) rotate(180) scale(25 25)">
<stop offset="0.00209964" stop-color="white"/>
<stop offset="0.25" stop-color="white" stop-opacity="0"/>
</radialGradient>
<radialGradient id="paint13_angular_1701_7377" cx="0" cy="0" r="1" gradientUnits="userSpaceOnUse" gradientTransform="translate(567 70) rotate(180) scale(25 25)">
<stop offset="0.00209964" stop-color="white"/>
<stop offset="0.25" stop-color="white" stop-opacity="0"/>
</radialGradient>
<linearGradient id="paint14_linear_1701_7377" x1="601.5" y1="70" x2="601.5" y2="45" gradientUnits="userSpaceOnUse">
<stop stop-color="white"/>
<stop offset="1" stop-color="white" stop-opacity="0"/>
</linearGradient>
<linearGradient id="paint15_linear_1701_7377" x1="521.5" y1="70" x2="521.5" y2="50" gradientUnits="userSpaceOnUse">
<stop stop-color="white"/>
<stop offset="1" stop-color="white" stop-opacity="0"/>
</linearGradient>
<radialGradient id="paint16_angular_1701_7377" cx="0" cy="0" r="1" gradientUnits="userSpaceOnUse" gradientTransform="translate(667 69.999) scale(25 25)">
<stop offset="0.00209964" stop-color="white"/>
<stop offset="0.25" stop-color="white" stop-opacity="0"/>
</radialGradient>
<linearGradient id="paint17_linear_1701_7377" x1="631.5" y1="69.999" x2="631.5" y2="114.999" gradientUnits="userSpaceOnUse">
<stop stop-color="white"/>
<stop offset="1" stop-color="white" stop-opacity="0"/>
</linearGradient>
<linearGradient id="paint18_linear_1701_7377" x1="801.5" y1="69.999" x2="801.5" y2="114.999" gradientUnits="userSpaceOnUse">
<stop stop-color="white"/>
<stop offset="1" stop-color="white" stop-opacity="0"/>
</linearGradient>
<radialGradient id="paint19_angular_1701_7377" cx="0" cy="0" r="1" gradientUnits="userSpaceOnUse" gradientTransform="translate(747 70) rotate(180) scale(25 25)">
<stop offset="0.00209964" stop-color="white"/>
<stop offset="0.25" stop-color="white" stop-opacity="0"/>
</radialGradient>
</defs>
</svg>
