<svg width="1207" height="994" viewBox="0 0 1207 994" fill="none" xmlns="http://www.w3.org/2000/svg">
<g clip-path="url(#clip0_1701_98)">
<mask id="mask0_1701_98" style="mask-type:alpha" maskUnits="userSpaceOnUse" x="306" y="102" width="325" height="397">
<path d="M306.178 498.768C306.178 261.168 630.178 340.368 630.178 102.768V498.768H306.178Z" fill="#D9D9D9"/>
</mask>
<g mask="url(#mask0_1701_98)">
<path d="M324.165 102.768H342.165V498.768H324.165V102.768Z" fill="url(#paint0_linear_1701_98)"/>
<path d="M360.165 102.768H378.165V498.768H360.165V102.768Z" fill="url(#paint1_linear_1701_98)"/>
<path d="M396.165 102.768H414.165V498.768H396.165V102.768Z" fill="url(#paint2_linear_1701_98)"/>
<path d="M432.165 102.768H450.165V498.768H432.165V102.768Z" fill="url(#paint3_linear_1701_98)"/>
<path d="M468.165 102.768H486.165V498.768H468.165V102.768Z" fill="url(#paint4_linear_1701_98)"/>
<path d="M504.165 102.768H522.165V498.768H504.165V102.768Z" fill="url(#paint5_linear_1701_98)"/>
<path d="M540.165 102.768H558.165V498.768H540.165V102.768Z" fill="url(#paint6_linear_1701_98)"/>
<path d="M576.165 102.768H594.165V498.768H576.165V102.768Z" fill="url(#paint7_linear_1701_98)"/>
<path d="M612.165 102.768H630.165V498.768H612.165V102.768Z" fill="url(#paint8_linear_1701_98)"/>
</g>
<path d="M72.1782 498.768H90.1782C90.1782 261.168 198.178 340.368 198.178 102.768H144.178C144.178 340.368 72.1782 261.168 72.1782 498.768Z" fill="white"/>
<path d="M36.1782 498.768H54.1782C54.1782 261.168 126.178 340.368 126.178 102.768H72.1782C72.1782 340.368 36.1782 261.168 36.1782 498.768Z" fill="white"/>
<path d="M0.178223 498.768H18.1782C18.1782 261.168 54.1782 340.368 54.1782 102.768H0.178223C0.178223 340.368 0.178223 261.168 0.178223 498.768Z" fill="white"/>
<path d="M108.178 498.768H126.178C126.178 261.168 270.178 340.368 270.178 102.768H216.178C216.178 340.368 108.178 261.168 108.178 498.768Z" fill="white"/>
<path d="M144.178 498.768H162.178C162.178 261.168 342.178 340.368 342.178 102.768H288.178C288.178 340.368 144.178 261.168 144.178 498.768Z" fill="white"/>
<path d="M180.178 498.768H198.178C198.178 261.168 414.178 340.368 414.178 102.768H360.178C360.178 340.368 180.178 261.168 180.178 498.768Z" fill="white"/>
<path d="M216.178 498.768H234.178C234.178 261.168 486.178 340.368 486.178 102.768H432.178C432.178 340.368 216.178 261.168 216.178 498.768Z" fill="white"/>
<path d="M252.178 498.768H270.178C270.178 261.168 558.178 340.368 558.178 102.768H504.178C504.178 340.368 252.178 261.168 252.178 498.768Z" fill="white"/>
<path d="M288.178 498.768H306.178C306.178 261.168 630.178 340.368 630.178 102.768H576.178C576.178 340.368 288.178 261.168 288.178 498.768Z" fill="white"/>
</g>
<g clip-path="url(#clip1_1701_98)">
<mask id="mask1_1701_98" style="mask-type:alpha" maskUnits="userSpaceOnUse" x="648" y="102" width="289" height="397">
<path d="M936.178 498.768C936.178 261.168 648.178 340.368 648.178 102.768V498.768H936.178Z" fill="black"/>
</mask>
<g mask="url(#mask1_1701_98)">
<path d="M882.191 102.768H864.191V498.768H882.191V102.768Z" fill="url(#paint9_linear_1701_98)"/>
<path d="M918.191 102.768H900.191V498.768H918.191V102.768Z" fill="url(#paint10_linear_1701_98)"/>
<path d="M846.191 102.768H828.191V498.768H846.191V102.768Z" fill="url(#paint11_linear_1701_98)"/>
<path d="M810.191 102.768H792.191V498.768H810.191V102.768Z" fill="url(#paint12_linear_1701_98)"/>
<path d="M774.191 102.768H756.191V498.768H774.191V102.768Z" fill="url(#paint13_linear_1701_98)"/>
<path d="M738.191 102.768H720.191V498.768H738.191V102.768Z" fill="url(#paint14_linear_1701_98)"/>
<path d="M702.191 102.768H684.191V498.768H702.191V102.768Z" fill="url(#paint15_linear_1701_98)"/>
<path d="M666.191 102.768H648.191V498.768H666.191V102.768Z" fill="url(#paint16_linear_1701_98)"/>
</g>
<path d="M1134.18 498.768H1116.18C1116.18 261.168 1008.18 340.368 1008.18 102.768H1062.18C1062.18 340.368 1134.18 261.168 1134.18 498.768Z" fill="white"/>
<path d="M1170.18 498.768H1152.18C1152.18 261.168 1080.18 340.368 1080.18 102.768H1134.18C1134.18 340.368 1170.18 261.168 1170.18 498.768Z" fill="white"/>
<path d="M1206.18 498.768H1188.18C1188.18 261.168 1152.18 340.368 1152.18 102.768H1206.18C1206.18 340.368 1206.18 261.168 1206.18 498.768Z" fill="white"/>
<path d="M1098.18 498.768H1080.18C1080.18 261.168 936.178 340.368 936.178 102.768H990.178C990.178 340.368 1098.18 261.168 1098.18 498.768Z" fill="white"/>
<path d="M1062.18 498.768H1044.18C1044.18 261.168 864.178 340.368 864.178 102.768H918.178C918.178 340.368 1062.18 261.168 1062.18 498.768Z" fill="white"/>
<path d="M1026.18 498.768H1008.18C1008.18 261.168 792.178 340.368 792.178 102.768H846.178C846.178 340.368 1026.18 261.168 1026.18 498.768Z" fill="white"/>
<path d="M990.178 498.768H972.178C972.178 261.168 720.178 340.368 720.178 102.768H774.178C774.178 340.368 990.178 261.168 990.178 498.768Z" fill="white"/>
<path d="M954.178 498.768H936.178C936.178 261.168 648.178 340.368 648.178 102.768H702.178C702.178 340.368 954.178 261.168 954.178 498.768Z" fill="white"/>
</g>
<g clip-path="url(#clip2_1701_98)">
<mask id="mask2_1701_98" style="mask-type:alpha" maskUnits="userSpaceOnUse" x="0" y="498" width="325" height="397">
<path d="M324.178 498.768C324.178 736.368 0.178219 657.168 0.178219 894.768V498.768H324.178Z" fill="#D9D9D9"/>
</mask>
<g mask="url(#mask2_1701_98)">
<path d="M306.191 894.768H288.191V498.768H306.191V894.768Z" fill="url(#paint17_linear_1701_98)"/>
<path d="M270.191 894.768H252.191V498.768H270.191V894.768Z" fill="url(#paint18_linear_1701_98)"/>
<path d="M234.191 894.768H216.191V498.768H234.191V894.768Z" fill="url(#paint19_linear_1701_98)"/>
<path d="M198.191 894.768H180.191V498.768H198.191V894.768Z" fill="url(#paint20_linear_1701_98)"/>
<path d="M162.191 894.768H144.191V498.768H162.191V894.768Z" fill="url(#paint21_linear_1701_98)"/>
<path d="M126.191 894.768H108.191V498.768H126.191V894.768Z" fill="url(#paint22_linear_1701_98)"/>
<path d="M90.1914 894.768H72.1914V498.768H90.1914V894.768Z" fill="url(#paint23_linear_1701_98)"/>
<path d="M54.1914 894.768H36.1914V498.768H54.1914V894.768Z" fill="url(#paint24_linear_1701_98)"/>
<path d="M18.1914 894.768H0.191406V498.768H18.1914V894.768Z" fill="url(#paint25_linear_1701_98)"/>
</g>
<path d="M558.178 498.768H540.178C540.178 736.368 432.178 657.168 432.178 894.768H486.178C486.178 657.168 558.178 736.368 558.178 498.768Z" fill="white"/>
<path d="M594.178 498.768H576.178C576.178 736.368 504.178 657.168 504.178 894.768H558.178C558.178 657.168 594.178 736.368 594.178 498.768Z" fill="white"/>
<path d="M630.178 498.768H612.178C612.178 736.368 576.178 657.168 576.178 894.768H630.178C630.178 657.168 630.178 736.368 630.178 498.768Z" fill="white"/>
<path d="M522.178 498.768H504.178C504.178 736.368 360.178 657.168 360.178 894.768H414.178C414.178 657.168 522.178 736.368 522.178 498.768Z" fill="white"/>
<path d="M486.178 498.768H468.178C468.178 736.368 288.178 657.168 288.178 894.768H342.178C342.178 657.168 486.178 736.368 486.178 498.768Z" fill="white"/>
<path d="M450.178 498.768H432.178C432.178 736.368 216.178 657.168 216.178 894.768H270.178C270.178 657.168 450.178 736.368 450.178 498.768Z" fill="white"/>
<path d="M414.178 498.768H396.178C396.178 736.368 144.178 657.168 144.178 894.768H198.178C198.178 657.168 414.178 736.368 414.178 498.768Z" fill="white"/>
<path d="M378.178 498.768H360.178C360.178 736.368 72.1782 657.168 72.1782 894.768H126.178C126.178 657.168 378.178 736.368 378.178 498.768Z" fill="white"/>
<path d="M342.178 498.768H324.178C324.178 736.368 0.178223 657.168 0.178223 894.768H54.1782C54.1782 657.168 342.178 736.368 342.178 498.768Z" fill="white"/>
</g>
<g clip-path="url(#clip3_1701_98)">
<mask id="mask3_1701_98" style="mask-type:alpha" maskUnits="userSpaceOnUse" x="918" y="498" width="289" height="397">
<path d="M918.178 498.768C918.178 736.368 1206.18 657.168 1206.18 894.768V498.768H918.178Z" fill="black"/>
</mask>
<g mask="url(#mask3_1701_98)">
<path d="M972.165 894.768H990.165V498.768H972.165V894.768Z" fill="url(#paint26_linear_1701_98)"/>
<path d="M936.165 894.768H954.165V498.768H936.165V894.768Z" fill="url(#paint27_linear_1701_98)"/>
<path d="M1008.17 894.768H1026.17V498.768H1008.17V894.768Z" fill="url(#paint28_linear_1701_98)"/>
<path d="M1044.17 894.768H1062.17V498.768H1044.17V894.768Z" fill="url(#paint29_linear_1701_98)"/>
<path d="M1080.17 894.768H1098.17V498.768H1080.17V894.768Z" fill="url(#paint30_linear_1701_98)"/>
<path d="M1116.17 894.768H1134.17V498.768H1116.17V894.768Z" fill="url(#paint31_linear_1701_98)"/>
<path d="M1152.17 894.768H1170.17V498.768H1152.17V894.768Z" fill="url(#paint32_linear_1701_98)"/>
<path d="M1188.17 894.768H1206.17V498.768H1188.17V894.768Z" fill="url(#paint33_linear_1701_98)"/>
</g>
<path d="M720.178 498.768H738.178C738.178 736.368 846.178 657.168 846.178 894.768H792.178C792.178 657.168 720.178 736.368 720.178 498.768Z" fill="white"/>
<path d="M684.178 498.768H702.178C702.178 736.368 774.178 657.168 774.178 894.768H720.178C720.178 657.168 684.178 736.368 684.178 498.768Z" fill="white"/>
<path d="M648.178 498.768H666.178C666.178 736.368 702.178 657.168 702.178 894.768H648.178C648.178 657.168 648.178 736.368 648.178 498.768Z" fill="white"/>
<path d="M756.178 498.768H774.178C774.178 736.368 918.178 657.168 918.178 894.768H864.178C864.178 657.168 756.178 736.368 756.178 498.768Z" fill="white"/>
<path d="M792.178 498.768H810.178C810.178 736.368 990.178 657.168 990.178 894.768H936.178C936.178 657.168 792.178 736.368 792.178 498.768Z" fill="white"/>
<path d="M828.178 498.768H846.178C846.178 736.368 1062.18 657.168 1062.18 894.768H1008.18C1008.18 657.168 828.178 736.368 828.178 498.768Z" fill="white"/>
<path d="M864.178 498.768H882.178C882.178 736.368 1134.18 657.168 1134.18 894.768H1080.18C1080.18 657.168 864.178 736.368 864.178 498.768Z" fill="white"/>
<path d="M900.178 498.768H918.178C918.178 736.368 1206.18 657.168 1206.18 894.768H1152.18C1152.18 657.168 900.178 736.368 900.178 498.768Z" fill="white"/>
</g>
<path d="M38.2519 39.7681C14.1531 39.7681 0.178223 46.4655 0.178223 61.3772C0.178223 91.7662 72.1782 66.7659 72.1791 102.768H126.179C126.179 72.5846 68.4974 65.2438 54.9487 63.9359C50.4976 63.5062 51.3526 57.7681 55.1849 57.7681H117.18L122.663 39.7681H38.2519Z" fill="white"/>
<path d="M0.178223 93.7659H54.1782L54.1796 102.768H0.179574L0.178223 93.7659Z" fill="white"/>
<path d="M0.178223 894.353H54.1782V930.353C54.1782 935.324 58.208 939.353 63.1782 939.353C68.1484 939.353 72.1782 935.324 72.1782 930.353V894.353H126.178C126.178 939.353 114.02 958.253 63.1782 958.253C12.3368 958.253 0.178223 939.353 0.178223 894.353Z" fill="white"/>
<path d="M144.141 102.768V39.7681H183.709L191.873 59.5298C191.873 59.5298 198.141 38.867 225.141 38.8681C272.077 39.6848 270.141 67.0389 270.141 102.768H216.141V72.5488C216.141 67.5785 212.111 63.5488 207.141 63.5488C202.17 63.5488 198.141 67.5782 198.141 72.5488V102.768H144.141Z" fill="white"/>
<path d="M144.178 894.339V993.34H198.178V978.071C198.178 964.332 196.064 950.674 191.911 937.578C191.911 937.578 198.178 958.242 225.178 958.24C272.115 957.424 270.178 930.068 270.178 894.339H216.178V924.559C216.178 929.529 212.148 933.559 207.178 933.559C202.208 933.559 198.178 929.529 198.178 924.559V894.339H144.178Z" fill="white"/>
<path d="M288.178 39.7821H342.178V102.782H288.178V39.7821Z" fill="white"/>
<path d="M286.378 0.182125H343.978V25.3812H286.378V0.182125Z" fill="white"/>
<path d="M288.178 894.339H342.178V957.339H288.178V894.339Z" fill="white"/>
<path d="M360.163 102.768V39.7681H399.731L407.895 59.5298C407.895 59.5298 414.163 38.867 441.163 38.8681C488.099 39.6848 486.163 67.0389 486.163 102.768H432.163V72.5488C432.163 67.5785 428.133 63.5488 423.163 63.5488C418.192 63.5488 414.163 67.5782 414.163 72.5488V102.768H360.163Z" fill="white"/>
<path d="M360.178 894.339H414.178V957.339H360.178V894.339Z" fill="white"/>
<path d="M432.178 894.339H486.178V957.339H432.178V894.339Z" fill="white"/>
<path d="M504.178 102.754H558.178V66.754C558.178 61.7838 562.208 57.754 567.178 57.754C572.148 57.754 576.178 61.7838 576.178 66.754V102.754H630.178C630.178 57.754 618.02 38.854 567.178 38.854C516.337 38.854 504.178 57.754 504.178 102.754Z" fill="white"/>
<path d="M504.178 903.339C504.178 939.339 516.337 957.339 567.178 957.339L622.146 957.337L627.681 939.339H576.178C567.986 939.339 558.178 939.339 558.178 921.339H594.178C613.146 921.339 630.178 913.513 630.178 894.339H576.178C576.178 901.455 573.151 904.513 567.178 904.513H558.178V894.339H504.178V903.339Z" fill="white"/>
<path d="M686.252 39.7681C662.153 39.7681 648.178 46.4655 648.178 61.3772C648.178 91.7662 720.178 66.7659 720.179 102.768H774.179C774.179 72.5846 716.497 65.2438 702.949 63.9359C698.498 63.5062 699.353 57.7681 703.185 57.7681H765.18L770.663 39.7681H686.252Z" fill="white"/>
<path d="M648.178 93.7659H702.178L702.18 102.768H648.18L648.178 93.7659Z" fill="white"/>
<path d="M648.178 894.353H702.178V930.353C702.178 935.324 706.208 939.353 711.178 939.353C716.148 939.353 720.178 935.324 720.178 930.353V894.353H774.178C774.178 939.353 762.02 958.253 711.178 958.253C660.337 958.253 648.178 939.353 648.178 894.353Z" fill="white"/>
<path d="M918.178 93.7681C918.178 57.7681 906.019 39.7681 855.178 39.7681L800.211 39.7703L794.675 57.7681H846.178C854.37 57.7681 864.178 57.7681 864.178 75.7681H828.178C809.211 75.7681 792.178 83.5943 792.178 102.768H846.178C846.178 95.6524 849.205 92.5943 855.178 92.5943H864.178V102.768H918.178V93.7681Z" fill="white"/>
<path d="M918.189 894.339V915.868C918.189 930.175 921.254 944.316 927.178 957.339H878.621L870.457 937.578C870.457 937.578 864.189 958.24 837.189 958.239C790.253 957.423 792.189 930.069 792.189 894.339H846.189V924.559C846.189 929.529 850.219 933.559 855.189 933.559C860.16 933.559 864.189 929.529 864.189 924.559V894.339H918.189Z" fill="white"/>
<path d="M936.163 102.768V39.7681H975.731L983.895 59.5298C983.895 59.5298 990.163 38.867 1017.16 38.8681C1064.1 39.6848 1062.16 67.0389 1062.16 102.768H1008.16V72.5488C1008.16 67.5785 1004.13 63.5488 999.163 63.5488C994.192 63.5488 990.163 67.5782 990.163 72.5488V102.768H936.163Z" fill="white"/>
<path d="M936.178 894.339H990.178V957.339H936.178V894.339Z" fill="white"/>
<path d="M1008.18 894.339H1062.18V957.339H1008.18V894.339Z" fill="white"/>
<path d="M1118.25 39.7681C1094.15 39.7681 1080.18 46.4655 1080.18 61.3772C1080.18 91.7662 1152.18 66.7659 1152.18 102.768H1206.18C1206.18 72.5846 1148.5 65.2438 1134.95 63.9359C1130.5 63.5062 1131.35 57.7681 1135.18 57.7681H1197.18L1202.66 39.7681H1118.25Z" fill="white"/>
<path d="M1080.18 93.7659H1134.18L1134.18 102.768H1080.18L1080.18 93.7659Z" fill="white"/>
<path d="M1080.18 894.353H1134.18V930.353C1134.18 935.324 1138.21 939.353 1143.18 939.353C1148.15 939.353 1152.18 935.324 1152.18 930.353V894.353H1206.18C1206.18 939.353 1194.02 958.253 1143.18 958.253C1092.34 958.253 1080.18 939.353 1080.18 894.353Z" fill="white"/>
<defs>
<linearGradient id="paint0_linear_1701_98" x1="333.165" y1="102.768" x2="333.165" y2="498.768" gradientUnits="userSpaceOnUse">
<stop stop-color="white" stop-opacity="0"/>
<stop offset="0.666667" stop-color="white"/>
</linearGradient>
<linearGradient id="paint1_linear_1701_98" x1="369.165" y1="102.768" x2="369.165" y2="498.768" gradientUnits="userSpaceOnUse">
<stop stop-color="white" stop-opacity="0"/>
<stop offset="0.666667" stop-color="white"/>
</linearGradient>
<linearGradient id="paint2_linear_1701_98" x1="405.165" y1="102.768" x2="405.165" y2="498.768" gradientUnits="userSpaceOnUse">
<stop stop-color="white" stop-opacity="0"/>
<stop offset="0.666667" stop-color="white"/>
</linearGradient>
<linearGradient id="paint3_linear_1701_98" x1="441.165" y1="102.768" x2="441.165" y2="498.768" gradientUnits="userSpaceOnUse">
<stop stop-color="white" stop-opacity="0"/>
<stop offset="0.666667" stop-color="white"/>
</linearGradient>
<linearGradient id="paint4_linear_1701_98" x1="477.165" y1="102.768" x2="477.165" y2="498.768" gradientUnits="userSpaceOnUse">
<stop stop-color="white" stop-opacity="0"/>
<stop offset="0.666667" stop-color="white"/>
</linearGradient>
<linearGradient id="paint5_linear_1701_98" x1="513.165" y1="102.768" x2="513.165" y2="498.768" gradientUnits="userSpaceOnUse">
<stop stop-color="white" stop-opacity="0"/>
<stop offset="0.666667" stop-color="white"/>
</linearGradient>
<linearGradient id="paint6_linear_1701_98" x1="549.165" y1="102.768" x2="549.165" y2="498.768" gradientUnits="userSpaceOnUse">
<stop stop-color="white" stop-opacity="0"/>
<stop offset="0.666667" stop-color="white"/>
</linearGradient>
<linearGradient id="paint7_linear_1701_98" x1="585.165" y1="102.768" x2="585.165" y2="498.768" gradientUnits="userSpaceOnUse">
<stop stop-color="white" stop-opacity="0"/>
<stop offset="0.666667" stop-color="white"/>
</linearGradient>
<linearGradient id="paint8_linear_1701_98" x1="621.165" y1="102.768" x2="621.165" y2="498.768" gradientUnits="userSpaceOnUse">
<stop stop-color="white" stop-opacity="0"/>
<stop offset="0.666667" stop-color="white"/>
</linearGradient>
<linearGradient id="paint9_linear_1701_98" x1="873.191" y1="102.768" x2="873.191" y2="498.768" gradientUnits="userSpaceOnUse">
<stop stop-color="white" stop-opacity="0"/>
<stop offset="0.666667" stop-color="white"/>
</linearGradient>
<linearGradient id="paint10_linear_1701_98" x1="909.191" y1="102.768" x2="909.191" y2="498.768" gradientUnits="userSpaceOnUse">
<stop stop-color="white" stop-opacity="0"/>
<stop offset="0.666667" stop-color="white"/>
</linearGradient>
<linearGradient id="paint11_linear_1701_98" x1="837.191" y1="102.768" x2="837.191" y2="498.768" gradientUnits="userSpaceOnUse">
<stop stop-color="white" stop-opacity="0"/>
<stop offset="0.666667" stop-color="white"/>
</linearGradient>
<linearGradient id="paint12_linear_1701_98" x1="801.191" y1="102.768" x2="801.191" y2="498.768" gradientUnits="userSpaceOnUse">
<stop stop-color="white" stop-opacity="0"/>
<stop offset="0.666667" stop-color="white"/>
</linearGradient>
<linearGradient id="paint13_linear_1701_98" x1="765.191" y1="102.768" x2="765.191" y2="498.768" gradientUnits="userSpaceOnUse">
<stop stop-color="white" stop-opacity="0"/>
<stop offset="0.666667" stop-color="white"/>
</linearGradient>
<linearGradient id="paint14_linear_1701_98" x1="729.191" y1="102.768" x2="729.191" y2="498.768" gradientUnits="userSpaceOnUse">
<stop stop-color="white" stop-opacity="0"/>
<stop offset="0.666667" stop-color="white"/>
</linearGradient>
<linearGradient id="paint15_linear_1701_98" x1="693.191" y1="102.768" x2="693.191" y2="498.768" gradientUnits="userSpaceOnUse">
<stop stop-color="white" stop-opacity="0"/>
<stop offset="0.666667" stop-color="white"/>
</linearGradient>
<linearGradient id="paint16_linear_1701_98" x1="657.191" y1="102.768" x2="657.191" y2="498.768" gradientUnits="userSpaceOnUse">
<stop stop-color="white" stop-opacity="0"/>
<stop offset="0.666667" stop-color="white"/>
</linearGradient>
<linearGradient id="paint17_linear_1701_98" x1="297.191" y1="894.768" x2="297.191" y2="498.768" gradientUnits="userSpaceOnUse">
<stop stop-color="white" stop-opacity="0"/>
<stop offset="0.666667" stop-color="white"/>
</linearGradient>
<linearGradient id="paint18_linear_1701_98" x1="261.191" y1="894.768" x2="261.191" y2="498.768" gradientUnits="userSpaceOnUse">
<stop stop-color="white" stop-opacity="0"/>
<stop offset="0.666667" stop-color="white"/>
</linearGradient>
<linearGradient id="paint19_linear_1701_98" x1="225.191" y1="894.768" x2="225.191" y2="498.768" gradientUnits="userSpaceOnUse">
<stop stop-color="white" stop-opacity="0"/>
<stop offset="0.666667" stop-color="white"/>
</linearGradient>
<linearGradient id="paint20_linear_1701_98" x1="189.191" y1="894.768" x2="189.191" y2="498.768" gradientUnits="userSpaceOnUse">
<stop stop-color="white" stop-opacity="0"/>
<stop offset="0.666667" stop-color="white"/>
</linearGradient>
<linearGradient id="paint21_linear_1701_98" x1="153.191" y1="894.768" x2="153.191" y2="498.768" gradientUnits="userSpaceOnUse">
<stop stop-color="white" stop-opacity="0"/>
<stop offset="0.666667" stop-color="white"/>
</linearGradient>
<linearGradient id="paint22_linear_1701_98" x1="117.191" y1="894.768" x2="117.191" y2="498.768" gradientUnits="userSpaceOnUse">
<stop stop-color="white" stop-opacity="0"/>
<stop offset="0.666667" stop-color="white"/>
</linearGradient>
<linearGradient id="paint23_linear_1701_98" x1="81.1914" y1="894.768" x2="81.1914" y2="498.768" gradientUnits="userSpaceOnUse">
<stop stop-color="white" stop-opacity="0"/>
<stop offset="0.666667" stop-color="white"/>
</linearGradient>
<linearGradient id="paint24_linear_1701_98" x1="45.1914" y1="894.768" x2="45.1914" y2="498.768" gradientUnits="userSpaceOnUse">
<stop stop-color="white" stop-opacity="0"/>
<stop offset="0.666667" stop-color="white"/>
</linearGradient>
<linearGradient id="paint25_linear_1701_98" x1="9.19141" y1="894.768" x2="9.19141" y2="498.768" gradientUnits="userSpaceOnUse">
<stop stop-color="white" stop-opacity="0"/>
<stop offset="0.666667" stop-color="white"/>
</linearGradient>
<linearGradient id="paint26_linear_1701_98" x1="981.165" y1="894.768" x2="981.165" y2="498.768" gradientUnits="userSpaceOnUse">
<stop stop-color="white" stop-opacity="0"/>
<stop offset="0.666667" stop-color="white"/>
</linearGradient>
<linearGradient id="paint27_linear_1701_98" x1="945.165" y1="894.768" x2="945.165" y2="498.768" gradientUnits="userSpaceOnUse">
<stop stop-color="white" stop-opacity="0"/>
<stop offset="0.666667" stop-color="white"/>
</linearGradient>
<linearGradient id="paint28_linear_1701_98" x1="1017.17" y1="894.768" x2="1017.17" y2="498.768" gradientUnits="userSpaceOnUse">
<stop stop-color="white" stop-opacity="0"/>
<stop offset="0.666667" stop-color="white"/>
</linearGradient>
<linearGradient id="paint29_linear_1701_98" x1="1053.17" y1="894.768" x2="1053.17" y2="498.768" gradientUnits="userSpaceOnUse">
<stop stop-color="white" stop-opacity="0"/>
<stop offset="0.666667" stop-color="white"/>
</linearGradient>
<linearGradient id="paint30_linear_1701_98" x1="1089.17" y1="894.768" x2="1089.17" y2="498.768" gradientUnits="userSpaceOnUse">
<stop stop-color="white" stop-opacity="0"/>
<stop offset="0.666667" stop-color="white"/>
</linearGradient>
<linearGradient id="paint31_linear_1701_98" x1="1125.17" y1="894.768" x2="1125.17" y2="498.768" gradientUnits="userSpaceOnUse">
<stop stop-color="white" stop-opacity="0"/>
<stop offset="0.666667" stop-color="white"/>
</linearGradient>
<linearGradient id="paint32_linear_1701_98" x1="1161.17" y1="894.768" x2="1161.17" y2="498.768" gradientUnits="userSpaceOnUse">
<stop stop-color="white" stop-opacity="0"/>
<stop offset="0.666667" stop-color="white"/>
</linearGradient>
<linearGradient id="paint33_linear_1701_98" x1="1197.17" y1="894.768" x2="1197.17" y2="498.768" gradientUnits="userSpaceOnUse">
<stop stop-color="white" stop-opacity="0"/>
<stop offset="0.666667" stop-color="white"/>
</linearGradient>
<clipPath id="clip0_1701_98">
<rect width="630" height="396" fill="white" transform="matrix(1 0 0 -1 0.178223 498.768)"/>
</clipPath>
<clipPath id="clip1_1701_98">
<rect width="558" height="396" fill="white" transform="matrix(-1 0 0 -1 1206.18 498.768)"/>
</clipPath>
<clipPath id="clip2_1701_98">
<rect width="630" height="396" fill="white" transform="matrix(-1 0 0 1 630.178 498.768)"/>
</clipPath>
<clipPath id="clip3_1701_98">
<rect width="558" height="396" fill="white" transform="translate(648.178 498.768)"/>
</clipPath>
</defs>
</svg>
