<svg width="177" height="74" viewBox="0 0 177 74" fill="none" xmlns="http://www.w3.org/2000/svg">
<path d="M90.1265 59.0053L84.6265 48.5053H84.1265V51.5053L89.6265 62.0053H90.1265V59.0053Z" fill="white"/>
<path d="M168.626 22.5053L163.126 12.0053H162.626V15.0053L168.126 25.5053H168.626V22.5053Z" fill="white"/>
<path d="M81.1265 59.0053L75.6265 48.5053H75.1265V51.5053L80.6265 62.0053H81.1265V59.0053Z" fill="white"/>
<path d="M33.6265 22.5053L28.1265 12.0053H27.6265V15.0053L33.1265 25.5053H33.6265V22.5053Z" fill="white"/>
<path d="M103.126 59.0053L97.6265 48.5053H97.1265V51.5053L102.626 62.0053H103.126V59.0053Z" fill="white"/>
<path d="M16.6265 15.0053L22.1265 25.5053H22.6265V22.5053L17.1265 12.0053H16.6265V15.0053Z" fill="white"/>
<path d="M48.1265 51.5053L53.6265 62.0053H54.1265V59.0053L48.6265 48.5053H48.1265V51.5053Z" fill="white"/>
<path d="M47.6265 15.0053L53.1265 25.5053H53.6265V22.5053L48.1265 12.0053H47.6265V15.0053Z" fill="white"/>
<path d="M72.6265 22.5053L67.1265 12.0053H66.6265V15.0053L72.1265 25.5053H72.6265V22.5053Z" fill="white"/>
<path d="M55.6265 15.0053L61.1265 25.5053H61.6265V22.5053L56.1265 12.0053H55.6265V15.0053Z" fill="white"/>
<path d="M35.6265 15.0053L41.1265 25.5053H41.6265V22.5053L36.1265 12.0053H35.6265V15.0053Z" fill="white"/>
<path d="M101.626 15.0053L107.126 25.5053H107.626V22.5053L102.126 12.0053H101.626V15.0053Z" fill="white"/>
<path d="M125.626 15.0053L131.126 25.5053H131.626V22.5053L126.126 12.0053H125.626V15.0053Z" fill="white"/>
<path d="M148.626 15.0053L154.126 25.5053H154.626V22.5053L149.126 12.0053H148.626V15.0053Z" fill="white"/>
<path d="M63.1265 51.5053L68.6265 62.0053H69.1265V59.0053L63.6265 48.5053H63.1265V51.5053Z" fill="white"/>
<path d="M99.6265 22.5053L94.1265 12.0053H93.6265V15.0053L99.1265 25.5053H99.6265V22.5053Z" fill="white"/>
<path d="M20.1265 59.0053L14.6265 48.5053H14.1265V51.5053L19.6265 62.0053H20.1265V59.0053Z" fill="white"/>
<path d="M154.626 15.0053L160.126 25.5053H160.626V22.5053L155.126 12.0053H154.626V15.0053Z" fill="white"/>
<path d="M93.6265 22.5053L88.1265 12.0053H87.6265V15.0053L93.1265 25.5053H93.6265V22.5053Z" fill="white"/>
<path d="M14.1265 59.0053L8.62646 48.5053H8.12646V51.5053L13.6265 62.0053H14.1265V59.0053Z" fill="white"/>
<path d="M146.626 22.5053L141.126 12.0053H140.626V15.0053L146.126 25.5053H146.626V22.5053Z" fill="white"/>
<path d="M118.626 22.5053L113.126 12.0053H112.626V15.0053L118.126 25.5053H118.626V22.5053Z" fill="white"/>
<path d="M176.626 22.5053L171.126 12.0053H170.626V15.0053L176.126 25.5053H176.626V22.5053Z" fill="white"/>
<path d="M84.1265 48.5053H90.1265V50.5053H84.1265V48.5053Z" fill="white"/>
<path d="M0.626465 12.0053H6.62646V14.0053H0.626465V12.0053Z" fill="white"/>
<path d="M32.1265 48.5053H38.1265V50.5053H32.1265V48.5053Z" fill="white"/>
<path d="M8.62646 12.0053H14.6265V14.0053H8.62646V12.0053Z" fill="white"/>
<path d="M67.1265 48.5053H73.1265V50.5053H67.1265V48.5053Z" fill="white"/>
<path d="M77.1265 62.0053H71.1265V60.0053H77.1265V62.0053Z" fill="white"/>
<path d="M40.1265 48.5053H46.1265V50.5053H40.1265V48.5053Z" fill="white"/>
<path d="M80.6265 12.0053H74.6265V14.0053H80.6265V12.0053Z" fill="white"/>
<path d="M28.1265 48.5053H22.1265V50.5053H28.1265V48.5053Z" fill="white"/>
<path d="M148.626 23.5053H154.626V25.5053H148.626V23.5053Z" fill="white"/>
<path d="M63.1265 60.0053H69.1265V62.0053H63.1265V60.0053Z" fill="white"/>
<path d="M99.6265 14.0053H93.6265V12.0053H99.6265V14.0053Z" fill="white"/>
<path d="M20.1265 50.5053H14.1265V48.5053H20.1265V50.5053Z" fill="white"/>
<path d="M112.626 23.5053H118.626V25.5053H112.626V23.5053Z" fill="white"/>
<path d="M170.626 23.5053H176.626V25.5053H170.626V23.5053Z" fill="white"/>
<path d="M162.626 23.5053H168.626V25.5053H162.626V23.5053Z" fill="white"/>
<path d="M22.6265 14.0053H16.6265V12.0053H22.6265V14.0053Z" fill="white"/>
<path d="M54.1265 50.5053H48.1265V48.5053H54.1265V50.5053Z" fill="white"/>
<path d="M53.6265 14.0053H47.6265V12.0053H53.6265V14.0053Z" fill="white"/>
<path d="M66.6265 23.5053H72.6265V25.5053H66.6265V23.5053Z" fill="white"/>
<path d="M61.6265 14.0053H55.6265V12.0053H61.6265V14.0053Z" fill="white"/>
<path d="M33.6265 14.0053H27.6265V12.0053H33.6265V14.0053Z" fill="white"/>
<path d="M103.126 50.5053H97.1265V48.5053H103.126V50.5053Z" fill="white"/>
<path d="M112.626 12.0053H118.626V14.0053H112.626V12.0053Z" fill="white"/>
<path d="M170.626 12.0053H176.626V14.0053H170.626V12.0053Z" fill="white"/>
<path d="M88.1265 37.0053H90.1265V48.5053H88.1265V37.0053Z" fill="white"/>
<path d="M4.62646 5.50534H6.62646V12.0053H4.62646V5.50534Z" fill="white"/>
<path d="M36.1265 42.0053H38.1265V48.5053H36.1265V42.0053Z" fill="white"/>
<path d="M4.62646 14.0053H6.62646V25.5053H4.62646V14.0053Z" fill="white"/>
<path d="M36.1265 50.5053H38.1265V62.0053H36.1265V50.5053Z" fill="white"/>
<path d="M43.6265 0.505341H45.6265V10.0053H43.6265V0.505341Z" fill="white"/>
<path d="M136.626 0.505341H138.626V10.0053H136.626V0.505341Z" fill="white"/>
<path d="M55.6265 0.505341H57.6265V12.0053H55.6265V0.505341Z" fill="white"/>
<path d="M66.6265 0.505341H68.6265V15.0053H66.6265V0.505341Z" fill="white"/>
<path d="M43.6265 12.0053H45.6265V25.5053H43.6265V12.0053Z" fill="white"/>
<path d="M136.626 12.0053H138.626V25.5053H136.626V12.0053Z" fill="white"/>
<path d="M61.1265 62.0053H59.1265V48.5053H61.1265V62.0053Z" fill="white"/>
<path d="M14.6265 12.0053H12.6265V25.5053H14.6265V12.0053Z" fill="white"/>
<path d="M71.1265 48.5053H73.1265V62.0053H71.1265V48.5053Z" fill="white"/>
<path d="M46.1265 48.5053H44.1265V62.0053H46.1265V48.5053Z" fill="white"/>
<path d="M74.6265 12.0053H76.6265V25.5053H74.6265V12.0053Z" fill="white"/>
<path d="M22.1265 48.5053H24.1265V62.0053H22.1265V48.5053Z" fill="white"/>
<path d="M8.62646 14.0053H10.6265V0.505341H8.62646V14.0053Z" fill="white"/>
<path d="M40.1265 50.5053H42.1265V37.0053H40.1265V50.5053Z" fill="white"/>
<path d="M162.626 25.5053H164.626V37.0053H162.626V25.5053Z" fill="white"/>
<path d="M79.1265 59.0053H81.1265V73.5053H79.1265V59.0053Z" fill="white"/>
<path d="M31.6265 22.5053H33.6265V37.0053H31.6265V22.5053Z" fill="white"/>
<path d="M101.126 59.0053H103.126V73.5053H101.126V59.0053Z" fill="white"/>
<path d="M136.626 23.0053H138.626V37.0053H136.626V23.0053Z" fill="white"/>
<path d="M61.1265 51.0053H59.1265V37.0053H61.1265V51.0053Z" fill="white"/>
<path d="M112.626 23.5053H114.626V37.0053H112.626V23.5053Z" fill="white"/>
<path d="M82.6265 24.0053C82.6265 23.1769 83.298 22.5053 84.1265 22.5053C84.9549 22.5053 85.6265 23.1769 85.6265 24.0053C85.6265 24.8338 84.9549 25.5053 84.1265 25.5053C83.298 25.5053 82.6265 24.8338 82.6265 24.0053Z" fill="white"/>
<path d="M92.1265 60.5053C92.1265 59.6769 92.798 59.0053 93.6265 59.0053C94.4549 59.0053 95.1265 59.6769 95.1265 60.5053C95.1265 61.3338 94.4549 62.0053 93.6265 62.0053C92.798 62.0053 92.1265 61.3338 92.1265 60.5053Z" fill="white"/>
<path d="M105.126 60.5053C105.126 59.6769 105.798 59.0053 106.626 59.0053C107.455 59.0053 108.126 59.6769 108.126 60.5053C108.126 61.3338 107.455 62.0053 106.626 62.0053C105.798 62.0053 105.126 61.3338 105.126 60.5053Z" fill="white"/>
<path d="M3.12646 60.5053C3.12646 59.6769 3.79804 59.0053 4.62646 59.0053C5.45489 59.0053 6.12646 59.6769 6.12646 60.5053C6.12646 61.3338 5.45489 62.0053 4.62646 62.0053C3.79804 62.0053 3.12646 61.3338 3.12646 60.5053Z" fill="white"/>
<path d="M120.626 24.0053C120.626 23.1769 121.298 22.5053 122.126 22.5053C122.955 22.5053 123.626 23.1769 123.626 24.0053C123.626 24.8338 122.955 25.5053 122.126 25.5053C121.298 25.5053 120.626 24.8338 120.626 24.0053Z" fill="white"/>
<path d="M82.6265 13.5053C82.6265 12.6769 83.298 12.0053 84.1265 12.0053C84.9549 12.0053 85.6265 12.6769 85.6265 13.5053C85.6265 14.3338 84.9549 15.0053 84.1265 15.0053C83.298 15.0053 82.6265 14.3338 82.6265 13.5053Z" fill="white"/>
<path d="M92.1265 50.0053C92.1265 49.1769 92.798 48.5053 93.6265 48.5053C94.4549 48.5053 95.1265 49.1769 95.1265 50.0053C95.1265 50.8338 94.4549 51.5053 93.6265 51.5053C92.798 51.5053 92.1265 50.8338 92.1265 50.0053Z" fill="white"/>
<path d="M3.12646 50.0053C3.12646 49.1769 3.79804 48.5053 4.62646 48.5053C5.45489 48.5053 6.12646 49.1769 6.12646 50.0053C6.12646 50.8338 5.45489 51.5053 4.62646 51.5053C3.79804 51.5053 3.12646 50.8338 3.12646 50.0053Z" fill="white"/>
<path d="M120.626 13.5053C120.626 12.6769 121.298 12.0053 122.126 12.0053C122.955 12.0053 123.626 12.6769 123.626 13.5053C123.626 14.3338 122.955 15.0053 122.126 15.0053C121.298 15.0053 120.626 14.3338 120.626 13.5053Z" fill="white"/>
</svg>
